<?xml version="1.0" encoding="UTF-8" standalone="no"?>
<svg
   version="1.1"
   x="0px"
   y="0px"
   viewBox="0 0 46.062653 49.232773"
   xml:space="preserve"
   id="svg2"
   width="46.062653"
   height="49.232773"
   xmlns="http://www.w3.org/2000/svg"
   xmlns:svg="http://www.w3.org/2000/svg"><defs
     id="defs2" /><g
     id="g1"
     transform="matrix(0.58610445,0,0,0.58610445,-6.273898,-4.6888356)"
     style="fill:#ffffff;fill-opacity:1"><path
       d="M 84.3,41.3 86.7,40 c 2.4,-1.3 3.3,-4.4 2,-6.8 l -3.8,-6.9 c -1.3,-2.4 -4.4,-3.3 -6.8,-2 l -2.4,1.3 c -1.8,1 -4,0.8 -5.6,-0.5 -2.4,-1.9 -5,-3.5 -7.9,-4.7 -1.9,-0.8 -3.1,-2.6 -3.1,-4.7 V 13 c 0,-2.8 -2.3,-5 -5,-5 H 46 c -2.8,0 -5,2.3 -5,5 v 2.7 c 0,2 -1.2,3.9 -3.1,4.6 -2.5,1 -4.8,2.3 -6.9,3.9 -1.6,1.2 -3.8,1.3 -5.6,0.2 L 23.1,23 c -2.4,-1.4 -5.5,-0.7 -6.9,1.7 l -4.1,6.8 c -1.4,2.4 -0.7,5.5 1.7,6.9 l 2.3,1.4 c 1.7,1.1 2.7,3.1 2.4,5.1 -0.4,1.7 -0.5,3.4 -0.5,5.1 0,1.3 0.1,2.5 0.2,3.7 0.2,2 -0.8,4 -2.6,5 L 13.3,60 c -2.4,1.3 -3.3,4.4 -2,6.8 l 3.8,6.9 c 1.3,2.4 4.4,3.3 6.8,2 l 2.4,-1.3 c 1.8,-1 4,-0.8 5.6,0.5 2.4,1.9 5,3.5 7.9,4.7 1.9,0.8 3.1,2.6 3.1,4.7 V 87 c 0,2.8 2.3,5 5,5 H 54 c 2.8,0 5,-2.3 5,-5 v -2.7 c 0,-2 1.2,-3.9 3.1,-4.6 2.5,-1 4.8,-2.3 6.9,-3.9 1.6,-1.2 3.8,-1.3 5.6,-0.2 l 2.3,1.4 c 2.4,1.4 5.5,0.7 6.9,-1.7 l 4.1,-6.8 C 89.3,66.1 88.6,63 86.2,61.6 L 84,60.1 C 82.3,59 81.3,57 81.6,55 81.9,53.4 82,51.7 82,49.9 c 0,-1.3 -0.1,-2.5 -0.2,-3.7 -0.3,-2 0.8,-3.9 2.5,-4.9 z M 50,68 c -9.9,0 -18,-8.1 -18,-18 0,-9.9 8.1,-18 18,-18 9.9,0 18,8.1 18,18 0,9.9 -8.1,18 -18,18 z"
       id="path1"
       style="fill:#ffffff;fill-opacity:1" /></g></svg>
