<?xml version="1.0" encoding="UTF-8" standalone="no"?>
<svg
   version="1.1"
   viewBox="-5 -10 59.516518 50.552876"
   id="svg2"
   sodipodi:docname="noun-pig-6713091.svg"
   width="59.516518"
   height="50.552876"
   xmlns:inkscape="http://www.inkscape.org/namespaces/inkscape"
   xmlns:sodipodi="http://sodipodi.sourceforge.net/DTD/sodipodi-0.dtd"
   xmlns="http://www.w3.org/2000/svg"
   xmlns:svg="http://www.w3.org/2000/svg">
  <defs
     id="defs2" />
  <sodipodi:namedview
     id="namedview2"
     pagecolor="#505050"
     bordercolor="#ffffff"
     borderopacity="1"
     inkscape:showpageshadow="0"
     inkscape:pageopacity="0"
     inkscape:pagecheckerboard="1"
     inkscape:deskcolor="#505050">
    <inkscape:page
       x="0"
       y="0"
       width="59.516518"
       height="50.552876"
       id="page2"
       margin="0"
       bleed="0" />
  </sodipodi:namedview>
  <path
     d="m 11.194914,20.793363 -0.06749,0.08307 c -0.472442,0.591846 -1.064314,1.362822 -1.4977878,2.206445 -0.599634,1.175889 -0.87479,2.479036 -0.399756,3.717258 0.700882,1.822279 1.5237708,3.468058 2.3596188,4.355806 0.524356,0.555509 1.085048,0.85924 1.62498,0.929282 0.586655,0.07528 1.007164,0.02596 1.349797,-0.03115 l 0.277754,-0.04672 c 0.563297,0.389375 1.349797,0.983839 2.689294,1.157747 0.290732,0.498399 0.789131,1.248589 1.479646,1.89757 0.752782,0.711249 1.718413,1.292714 2.863202,1.417314 0.607422,0.54772 2.029945,1.505563 4.259781,1.152564 0.669715,0.555508 2.05852,1.274572 4.43369,0.659341 0.02856,0.0052 0.0597,0.0052 0.08826,0.0052 0.630787,0.225834 1.978045,0.724206 2.967001,1.240813 0.3115,0.160943 0.708657,0.446486 0.773582,0.493209 0.184301,0.321886 0.526954,0.521764 0.900773,0.521764 h 18.180924 c 0.573677,0 1.038331,-0.464654 1.038331,-1.038331 V -8.8766784 c 0,-0.563297 -0.446486,-1.022781 -1.009756,-1.038331 0,0 -13.493317,-0.3634196 -17.861949,0.412734 -3.063093,0.545123 -8.366455,2.530936 -11.754238,3.680908 -1.274572,0.430909 -2.232428,0.763148 -2.601044,0.763148 -1.383555,0 -7.598256,-0.641166 -9.895542,-0.703473 -1.4381128,-0.03893 -4.1247487,0.815115 -6.4636345,1.365414 -0.828073,0.194687 -1.6094295,0.347842 -2.2531614,0.378989 -0.2959226,0.01558 -0.5555087,0.01039 -0.7501899,-0.0623 -1.11362634,-0.423121 -2.56988124,-0.92669 -3.7146037,-1.469213 -0.6022319,-0.285543 -1.1188057,-0.550312 -1.3550467,-0.851399 -0.3270759,-0.420522 -0.9189145,-0.524355 -1.3705967,-0.241411 -0.4516756,0.285543 -0.6152102,0.864423 -0.3789891,1.339431 0,0 1.0435142,2.105236 2.1623198,3.740582 0.539932,0.78394892 1.1058473,1.45884692 1.5912214,1.82227892 1.33424676,0.99679808 2.00914526,2.50754508 3.9586157,4.99953938 2.066295,2.645168 5.1527123,5.8068781 12.1848541,5.6433361 -0.01558,0.142768 -0.03374,0.290733 -0.05711,0.433501 -0.05711,0.332266 -0.09864,0.685265 -0.269966,0.85924 -0.402354,0.410142 -0.69829,0.950081 -0.892998,1.643187 -0.231031,0.809932 -0.327076,1.868996 -0.402354,3.182509 -0.0623,1.116214 -0.625597,1.736621 -1.033147,2.211629 -0.295923,0.340054 -0.534742,0.643765 -0.672307,0.931872 -0.0649,0.13498 -0.259579,0.342646 -0.485421,0.628189 z m 21.820565,16.184671 c 0.534742,0.220644 1.092822,0.469844 1.573079,0.721615 0.472442,0.244009 0.867015,0.519165 1.157747,0.778765 H 52.442666 V -7.8620444 c -3.161709,-0.07009 -12.880619,-0.225834 -16.431877,0.404952 -2.982618,0.532144 -8.14583,2.484219 -11.447889,3.603025 -1.591221,0.539932 -2.806118,0.87479 -3.268167,0.87479 -1.391396,0 -7.644773,-0.641167 -9.952692,-0.706065 -1.118806,-0.02856 -3.0448848,0.565888 -4.9138797,1.056472 0.472442,0.0026 0.955264,-0.01817 1.4355209,-0.07788 1.650963,-0.19209 3.9923738,0.02856 5.9237028,0.534742 1.087639,0.285542 2.045495,0.669715 2.704844,1.103255 0.560698,0.36860992 0.921506,0.80468192 1.095414,1.23044692 0.272564,0.674899 0.264776,1.88195408 0.103833,3.30192638 -0.210265,1.858629 -0.646364,4.14814 -0.617809,5.879578 0.0026,0.05711 0.01558,0.119409 0.02596,0.176513 0.02596,0.08826 0.03893,0.179111 0.04153,0.272564 0,0 0.02077,1.3135131 -0.244009,2.3881941 -0.150557,0.61002 -0.410143,1.144789 -0.739823,1.477055 -0.241411,0.244009 -0.355631,0.612618 -0.451676,1.074681 -0.13498,0.648955 -0.194688,1.453663 -0.249199,2.408927 -0.04672,0.833257 -0.256988,1.492605 -0.534742,2.040312 0.526953,-0.09085 1.025372,-0.09605 1.438113,0.01039 0.830664,0.212856 1.718412,0.898181 2.554327,1.593813 0.327076,0.275156 0.648955,0.545122 0.960448,0.757965 0.197286,0.132388 0.376397,0.254389 0.55291,0.282944 0.851398,0.140176 1.850854,1.004573 2.458236,2.154545 0.589253,1.121397 0.78654,2.447869 0.404952,3.3616 -0.109023,0.264776 -0.09605,0.60483 -0.145366,0.957856 -0.08826,0.622999 -0.264776,1.269389 -0.745007,1.863813 -0.160943,0.197286 -0.36082,0.394565 -0.617808,0.584063 1.152564,-0.334864 2.437502,-0.882564 3.636783,-1.778154 1.770379,-1.321288 3.359008,-3.374559 4.09624,-6.608968 0.05711,-0.282944 0.329668,-0.469844 0.61521,-0.415332 0.285543,0.05711 0.472442,0.329668 0.415333,0.61521 -0.578867,3.670475 -2.227245,6.079403 -4.119566,7.678665 -2.175278,1.837829 -4.695847,2.580244 -6.393526,2.881343 0.1246,0.145366 0.262178,0.293331 0.410142,0.430909 0.462056,0.436099 1.046106,0.828073 1.759946,0.872198 0.03374,-0.0052 0.06749,-0.01039 0.103833,-0.01558 0.443887,-0.04672 1.326472,-0.327076 2.899552,-1.388738 1.196688,-0.804682 2.743785,-2.003962 4.711397,-3.841791 0.199878,-0.210265 0.532144,-0.215455 0.742415,-0.01558 0.207666,0.202476 0.212856,0.534742 0.01298,0.742415 -2.312903,2.668494 -4.041682,4.233798 -5.303296,5.147529 -0.269966,0.194688 -0.521763,0.36342 -0.755373,0.508779 0.443887,0.08566 0.986431,0.09345 1.62498,-0.06749 -0.07528,0.01817 -0.145367,0.04413 -0.212857,0.07788 0.02856,-0.0078 0.05711,-0.01558 0.08826,-0.02077 0,0 0.960448,-0.111621 2.120786,-0.768331 0.617809,-0.347843 1.292714,-0.80209 1.915713,-1.490013 0.171323,-0.233623 0.498398,-0.288135 0.732048,-0.11941 0.233623,0.171323 0.285542,0.498399 0.116811,0.732048 -0.54253,0.952673 -1.196689,1.661329 -1.830054,2.206445 -0.129789,0.11422 -0.262178,0.218046 -0.389376,0.314097 0.420523,0.01817 0.937123,-0.03634 1.562713,-0.228432 0.07268,-0.02336 0.147965,-0.03634 0.223243,-0.04153 1.230447,-0.682673 5.643337,-3.481016 7.455382,-9.277527 1.017531,-3.260326 1.233039,-7.442092 -0.332266,-12.722461 -0.08826,-0.275156 0.0649,-0.571085 0.337456,-0.659342 0.275156,-0.08826 0.571079,0.0649 0.659342,0.340054 1.905345,5.531696 1.843012,9.993894 0.898181,13.497969 -1.355047,5.00738 -4.519348,8.093997 -6.562251,9.641027 z m -17.558259,-6.9829 c 1.775563,0 3.03711,-0.142768 3.935291,-0.394565 0.711248,-0.197287 1.144789,-0.436099 1.393988,-0.742415 0.275156,-0.340055 0.293331,-0.73464 0.332266,-1.085048 0.05192,-0.456865 0.109023,-0.879973 0.256988,-1.233039 0.18171,-0.436098 -0.04672,-1.051289 -0.327076,-1.588629 -0.166133,-0.314098 -0.368609,-0.602232 -0.594444,-0.820298 -0.124599,-0.122002 -0.238819,-0.233623 -0.368609,-0.256988 -0.630786,-0.106431 -1.349797,-0.55291 -2.071478,-1.136947 -0.719023,-0.584064 -1.445888,-1.349797 -2.170095,-1.534138 -0.399756,-0.101235 -0.939714,0.08307 -1.453663,0.275156 -0.781357,0.288134 -1.502972,0.687923 -1.780746,0.848806 -0.259586,0.337456 -0.539932,0.716432 -0.799498,1.126581 -0.503589,0.789131 -0.981248,1.713229 -0.638575,2.601044 0.513975,1.334246 1.074681,2.569877 1.676879,3.371967 0.127198,0.171323 0.25439,0.316689 0.386778,0.4335 0.08826,0.07788 0.160943,0.150557 0.249199,0.163535 0.550312,0.07009 0.869606,-0.05191 1.134356,-0.08566 0.295922,-0.03634 0.563297,-0.03375 0.838439,0.05711 z m 1.614613,-5.196837 c -0.436099,0.236221 -0.101234,1.261547 0.01298,1.596404 0.03893,0.11941 0.103833,0.210265 0.166133,0.321886 0.109023,0.194688 0.272564,0.334864 0.430908,0.467246 0.160943,0.134979 0.355631,0.192089 0.534743,0.249199 0.262177,0.01817 0.482822,0.05192 0.703473,0.0052 0.150556,-0.03115 0.267368,-0.09085 0.420522,-0.129789 0.160943,-0.04153 0.277755,-0.158345 0.503589,-0.140177 0.259579,0.12979 0.576275,0.02336 0.703473,-0.236221 0.12979,-0.259579 0.02077,-0.576275 -0.238819,-0.700881 -0.189498,-0.212857 -0.366011,-0.293331 -0.5581,-0.402354 -0.329668,-0.189498 -1.669105,-0.617809 -1.843013,-0.75019 -0.228433,-0.171323 -0.635977,-0.389376 -0.833256,-0.277755 z m -4.939863,1.726254 c 0.176513,0.137578 0.327076,0.184301 0.594444,0.311499 0.09085,0.04413 0.166133,0.05191 0.267367,0.07788 0.11941,0.03374 0.231031,0.03634 0.360821,0.03634 0.07788,0.0026 0.160943,-0.0078 0.23882,-0.03375 0.155752,-0.04932 0.295922,-0.116812 0.420522,-0.218046 0.09864,-0.08307 0.189498,-0.12979 0.267368,-0.233623 0.212856,-0.277755 0.399755,-0.423121 0.472442,-0.737232 0.192089,-0.212856 0.179111,-0.545122 -0.03634,-0.739823 -0.212857,-0.194688 -0.545123,-0.179111 -0.739824,0.03634 -0.132388,0.04153 -0.220644,-0.05711 -0.368609,-0.05192 -0.07788,0.0026 -0.129789,-0.04672 -0.210264,-0.04413 -0.103833,0.0026 -0.199878,-0.04672 -0.30112,-0.02596 -0.08826,0.01817 -0.158344,0.07528 -0.236221,0.111622 -0.06749,0.03115 -0.103833,0.08047 -0.166133,0.119409 -0.212856,0.12979 -0.285542,0.269966 -0.451675,0.347843 -0.288135,-0.03115 -0.547721,0.179111 -0.578867,0.464654 -0.03115,0.288134 0.176519,0.545122 0.464654,0.576275 z m 5.477204,-10.201892 c 0.524355,-0.768332 1.136947,-1.669104 1.676879,-2.743785 0.311499,-0.622999 0.602232,-1.290122 0.815115,-1.998779 0.205068,-0.687923 0.327076,-1.409538 0.407544,-2.1389951 0.11941,-1.105847 0.101235,-2.201261 -0.03634,-3.281125 -0.0026,-0.288135 -0.23882,-0.521764 -0.529553,-0.519166 -0.288134,0.0026 -0.521763,0.23882 -0.519165,0.526954 -0.07788,0.661934 -0.233623,1.303081 -0.404952,1.957246 -0.13498,0.516567 -0.301113,1.017531 -0.462056,1.526363 -0.160943,0.5113771 -0.340054,1.0123471 -0.4958,1.5107461 -0.19209,0.633379 -0.358223,1.256364 -0.534742,1.853446 -0.30631,1.05913 -0.565889,2.019578 -0.848807,2.829443 -0.12979,0.259579 -0.02596,0.576275 0.231031,0.706065 0.256988,0.12979 0.573677,0.02596 0.703474,-0.231031 z m 14.708081,-6.107977 c -0.942306,0.07528 -1.648371,0.900773 -1.57308,1.843012 0.07528,0.944898 0.900773,1.648371 1.843013,1.575671 0.942306,-0.07528 1.648371,-0.900772 1.573079,-1.843012 -0.07269,-0.944898 -0.898181,-1.650963 -1.843012,-1.575671 z m -4.37654,0.316689 c -0.4958,0.804682 0.703474,0.877381 0.804682,0.732048 l -0.05192,0.02596 c 0.0597,-0.04672 0.1246,-0.103833 0.19209,-0.171323 0.220644,-0.236221 0.661933,-0.726865 1.116214,-1.3654131 0.223242,-0.31669 0.42831,-0.667124 0.6204,-1.025373 0.02336,-0.01558 0.04672,-0.03115 0.0649,-0.04932 l -0.03374,-0.0078 0.03634,-0.07009 c 0.0052,-0.01298 0.01817,-0.03634 0.03115,-0.02855 0.03374,0.02077 0.0078,0.06749 -0.03634,0.109023 0.132388,0.03634 0.327075,0.12979 0.472442,0.171323 0.371201,0.101235 0.794315,0.223243 1.27198,0.334864 0.693107,0.160943 1.458847,0.295923 2.328453,0.327076 0.285543,0.05192 0.555509,-0.137578 0.607422,-0.420522 0.05192,-0.285543 -0.137578,-0.5581 -0.420523,-0.61002 -0.498398,-0.173922 -0.929281,-0.394566 -1.349796,-0.602232 -0.503589,-0.251798 -0.939715,-0.506187 -1.347206,-0.706065 -0.597042,-0.295923 -1.121397,-0.475034 -1.541913,-0.506187 -0.869606,-0.06749 -1.521179,0.254389 -1.843012,1.225263 -0.122002,0.485421 -0.282944,0.957856 -0.438697,1.380964 -0.212857,0.578867 -0.358223,1.0591301 -0.488013,1.2667301 z M 31.525532,-1.284766e-4 c 0.02855,-0.0103900034 0.0597,-0.0181700034 0.09085,-0.0259600034 0.140176,-0.04153 0.306309,-0.03634 0.451675,0.01298 0.04153,0.01558 0.05451,0.06749 0.09085,0.09864 0.09086,0.06749 0.18171,0.147965 0.285543,0.225835 0.241411,0.181709 0.534742,0.334864 0.916323,0.451675 0.462055,0.142768 1.069497,0.153155 1.93392,-0.03374 0.353032,-0.09345 0.703473,-0.24401 1.043514,-0.446486 0.272564,-0.168731 0.537334,-0.368609 0.794315,-0.594444 0.389376,-0.337456 0.760557,-0.71902292 1.149972,-1.07208892 0.236221,-0.212856 0.462056,-0.42312 0.711248,-0.597042 0.282945,-0.192089 0.565889,-0.36082 0.887748,-0.441289 0.672307,0.37899 1.671697,1.365414 2.48422,2.51797792 0.843623,1.14219708 1.708046,1.88195408 2.271369,2.62177708 0.207666,0.269966 0.378989,0.524355 0.420522,0.8462153 0.0597,0.451675 0.150557,0.737231 0.256988,0.950081 0.08566,0.166133 0.173921,0.298521 0.280353,0.420522 0.223243,0.251798 0.563297,0.402354 0.991614,1.713229 0.301113,0.908548 0.472442,1.48483 0.573677,1.892388 0.122001,0.49061 0.145366,0.734639 0.1869,1.012347 -0.493209,0.1246 -1.290122,0.04932 -1.933921,-0.205068 -0.438697,-0.173921 -0.674898,-0.451675 -0.898181,-0.669715 -0.215454,-0.207666 -0.42312,-0.378989 -0.674898,-0.472442 -0.384179,-0.145366 -0.892998,-0.171323 -1.710638,0.277754 -0.256988,0.12979 -0.363412,0.446486 -0.233623,0.703474 0.12979,0.259579 0.443888,0.363419 0.703474,0.233623 0.397164,-0.179112 0.6204,-0.233623 0.794314,-0.150557 0.153155,0.07269 0.24401,0.233623 0.37899,0.386778 0.264776,0.306309 0.589253,0.6307861 1.113622,0.8877481 1.059131,0.513975 2.445277,0.607422 3.164301,0.363419 0.685265,-0.231031 0.950081,-0.732048 0.879973,-1.3135141 -0.05711,-0.462055 -0.03634,-0.695698 -0.160943,-1.39658 -0.08047,-0.441289 -0.223243,-1.066905 -0.480231,-2.050678 -0.173921,-0.648956 -0.347842,-1.090231 -0.503589,-1.409539 -0.150556,-0.306309 -0.295922,-0.511377 -0.42312,-0.672306 -0.176513,-0.223243 -0.327076,-0.236222 -0.368609,-0.708657 -0.0597,-0.6748993 -0.329668,-1.2563643 -0.745007,-1.8326463 -0.537334,-0.74759808 -1.391397,-1.48742108 -2.206445,-2.632144 -0.80209,-1.082455 -1.754762,-2.02217 -2.546485,-2.601043 -0.529553,-0.389376 -1.009756,-0.628189 -1.352455,-0.706065 -0.347843,-0.08047 -0.633379,-0.05711 -0.851399,0.02596 -0.137578,0.05192 -0.251797,0.06749 -0.420522,0.02596 -0.218046,-0.05451 -0.482822,-0.150557 -0.828073,-0.295923 -0.617808,-0.251798 -1.282347,-0.280353 -1.957245,-0.111621 -0.742415,0.184301 -1.502972,0.586655 -2.185712,1.033147 -0.329667,0.218046 -0.648955,0.358223 -0.970814,0.456866 -0.633379,0.197286 -1.258956,0.280352 -1.894979,0.493209 -0.555509,0.192089 -0.885156,0.700881 -0.887748,1.42768 -0.0052,1.02018892 0.586655,2.48681 0.586655,2.48681 0.07788,0.212857 0.277755,0.342646 0.493209,0.340055 h 0.0026 c 0.05711,0.0026 0.11941,-0.0078 0.181709,-0.03115 0.269966,-0.09864 0.410143,-0.402354 0.308901,-0.67230708 l -0.01039,0.01298 c -0.0026,-0.04153 -0.01039,-0.08307 -0.02596,-0.12979 -0.03634,-0.132388 -0.101235,-0.368609 -0.160943,-0.643765 z M 2.7380163,-1.9625574 c -0.6178085,0.025957 -1.1473805,-0.025957 -1.5367297,-0.173921 -0.72420674,-0.275156 -1.58344624,-0.584064 -2.421886,-0.916323 0.070088,0.106431 0.1401764,0.212856 0.2128562,0.316689 0.38937566,0.565889 0.77358136,1.074681 1.12398896,1.334247 1.44588824,1.08245592 2.23501974,2.67886 4.34803134,5.3837703 1.7885212,2.289512 4.4726311,4.98658 10.5574159,4.843839 0.09086,-1.822279 0.586655,-4.080624 0.835848,-5.8821693 0.12979,-0.918915 0.233623,-1.689905 0.07009,-2.14677008 -0.07528,-0.210265 -0.308901,-0.378989 -0.60483,-0.565889 -0.703475,-0.441289 -1.734031,-0.815115 -2.850245,-1.095414 C 10.941009,-1.2460864 9.2536972,-1.4511534 7.9921502,-1.3628974 c -1.1005979,0.077877 -2.2116284,-0.010387 -3.1902843,-0.160943 -0.812523,-0.127198 -1.5315463,-0.295923 -2.066295,-0.438697 z M 30.656324,8.6646349 c -0.07009,-0.01558 -0.119409,-0.0052 -0.119409,0.05711 0,0.03634 0.04153,0.02596 0.08826,0.0026 l 0.03115,-0.05711 z m 11.050499,-1.523771 c -0.0052,0.0026 -0.01558,0.0026 -0.02336,0.0026 -0.01558,0.0052 -0.02856,0.01298 -0.04413,0.01817 l 0.06749,-0.02077 c 0.01298,-0.0026 0.02337,-0.0052 0.02856,-0.0078 z m -0.02336,0.0026 c 0.0597,-0.02596 0.127198,-0.05711 0.202476,-0.101234 0.205068,-0.11941 0.547721,-0.430909 0.833257,-0.981248 0.184301,-0.358223 0.244009,-0.817707 0.233622,-1.41213 -0.03894,-0.462056 -0.01558,-0.872198 -0.07269,-1.235631 -0.0649,-0.4309093 -0.202476,-0.8151143 -0.441289,-1.1265803 -0.342646,-0.449078 -0.854056,-0.833257 -1.780746,-0.94749 -0.970814,-0.0597 -1.490013,-0.158344 -1.746987,-0.233622 -0.687924,-0.20506808 -1.196689,0.867014 -0.09864,1.27198 0.342645,0.127198 0.770989,0.402354 1.448479,0.680082 0.220645,0.07788 0.347843,0.202476 0.454268,0.3114993 0.04932,0.05191 0.04672,0.1246 0.07269,0.189498 0.03115,0.08826 0.0623,0.181709 0.08826,0.285542 0.08826,0.337456 0.176513,0.71384 0.298521,1.131764 0.09604,0.264776 0.171323,0.469844 0.150556,0.656744 -0.03634,0.293331 -0.09605,0.500997 -0.160943,0.591845 -0.508785,0.721615 0.295923,0.929282 0.521764,0.918915 z M 25.802478,-2.1234404 c -0.373799,-0.05451 -0.690515,0.672307 -0.690515,0.672307 -0.122001,0.391967 -0.319287,1.20964692 -0.285543,2.22724392 0.01298,0.33226608 0.07269,0.67489908 0.163535,1.02537308 0.05711,0.223242 0.137578,0.451675 0.241411,0.667123 0.19209,0.389376 0.438697,0.773582 0.768332,1.1058473 0.638575,0.643766 1.469213,1.170706 2.624369,1.435522 0.267367,0.109023 0.573677,-0.02077 0.682673,-0.288134 0.109023,-0.267368 -0.02077,-0.573677 -0.288134,-0.682674 -0.415333,-0.264776 -0.711249,-0.571085 -0.991615,-0.8773813 -0.295922,-0.321886 -0.48542,-0.672307 -0.664531,-1.01494 -0.09086,-0.171322 -0.158345,-0.347842 -0.233623,-0.519165 -0.127198,-0.277754 -0.244009,-0.545122 -0.342646,-0.80993108 -0.462056,-1.248589 -0.560699,-2.33104492 -0.560699,-2.33104492 0.05192,-0.285542 -0.134979,-0.568487 -0.420522,-0.607422 z m 11.649906,-0.796907 c -0.04932,-0.02337 -0.09864,-0.04672 -0.150556,-0.07009 -0.340054,-0.163535 -0.729456,-0.132388 -1.121397,-0.02596 -0.493209,0.134987 -0.991615,0.371201 -1.451072,0.628189 -0.360821,0.202476 -0.708657,0.345244 -1.053881,0.446486 -0.752781,0.218046 -1.474463,0.238819 -2.222061,0.42312 -0.02077,0.05711 -0.04932,0.145367 -0.05711,0.212856 -0.0026,0.01039 -0.0026,0.02336 -0.0026,0.03374 0.09864,-0.04413 0.202477,-0.08566 0.308901,-0.119409 0.205068,-0.0649 0.417931,-0.0597 0.628189,-0.04672 0.368609,0.02336 0.700881,0.285543 1.227855,0.420523 0.272565,0.07009 0.612619,0.01039 1.152564,-0.199878 0.189498,-0.0623 0.363419,-0.171323 0.54772,-0.282944 0.210265,-0.127198 0.423121,-0.264776 0.641167,-0.410143 0.503589,-0.337456 1.017531,-0.708656 1.547097,-1.012347 z"
     fill-rule="evenodd"
     id="path1"
     style="fill:#ffffff;fill-opacity:1;stroke-width:0.664532" />
</svg>
