<?xml version="1.0" encoding="UTF-8" standalone="no"?>
<!-- Created with Inkscape (http://www.inkscape.org/) -->

<svg
   width="512"
   height="512"
   viewBox="0 0 512 512"
   version="1.1"
   id="svg1"
   xml:space="preserve"
   inkscape:export-filename="qt-ukr-categorizer-client.svg"
   inkscape:export-xdpi="6"
   inkscape:export-ydpi="6"
   xmlns:inkscape="http://www.inkscape.org/namespaces/inkscape"
   xmlns:sodipodi="http://sodipodi.sourceforge.net/DTD/sodipodi-0.dtd"
   xmlns="http://www.w3.org/2000/svg"
   xmlns:svg="http://www.w3.org/2000/svg"><sodipodi:namedview
     id="namedview1"
     pagecolor="#505050"
     bordercolor="#ffffff"
     borderopacity="1"
     inkscape:showpageshadow="0"
     inkscape:pageopacity="0"
     inkscape:pagecheckerboard="1"
     inkscape:deskcolor="#505050"
     inkscape:document-units="px"><inkscape:page
       x="0"
       y="0"
       width="512"
       height="512"
       id="page2"
       margin="0"
       bleed="0" /></sodipodi:namedview><defs
     id="defs1" /><g
     inkscape:label="Layer 1"
     inkscape:groupmode="layer"
     id="layer1"><g
       id="g1"
       transform="matrix(4.2580424,0,0,4.2580424,-574.27285,-1434.6395)"><path
         d="m 166.25067,360.60724 c -11.33356,11.42569 -17.13855,27.91924 -14.37427,44.96564 1.84286,10.96498 6.91071,20.54782 14.18998,27.91924 2.11928,-1.19786 3.86999,-2.02714 5.25213,-2.67214 1.01357,-0.46071 5.62071,-2.21142 8.93785,-2.57999 0,0 0.0921,0 0.0921,0 4.97571,-0.645 9.67498,-0.18429 14.18998,0.27642 5.6207,0.55286 10.96498,1.10572 16.76997,-0.46071 5.80499,-1.56643 17.78354,-2.30357 21.92997,-2.58 0.92142,-0.0921 1.84285,-0.64499 2.21142,-1.56642 1.56643,-3.68571 3.04071,-10.59641 3.31714,-13.45284 0.0921,-0.55285 -0.18429,-1.01357 -0.73714,-1.29 -1.56643,-0.92142 -4.60714,-2.11928 -6.72642,-3.04071 -6.44999,-2.67213 -10.50427,-4.51499 -12.16284,-7.18713 -0.18428,-0.27642 -0.46071,-0.73714 -0.82928,-1.47428 -0.92143,-1.75071 -4.05428,-7.46356 -6.26571,-11.14927 -0.46071,0.36857 -3.13285,2.21143 -3.86999,2.58 -3.04071,1.47428 -16.03283,-1.10571 -16.03283,-1.10571 0,0 6.72642,-1.10572 9.67498,-1.10572 3.225,0 5.15999,-0.36857 6.17356,-1.29 l 0.0922,-0.0921 c 4.60713,-4.05428 10.96498,-9.67498 16.86211,-10.41212 0.645,-0.0922 3.59357,-0.55286 3.50143,-1.935 -0.46072,-0.645 -2.85643,-1.19786 -7.09499,-1.56643 -3.40928,-0.27643 -6.35785,-1.38214 -9.30642,-2.48785 -4.05428,-1.47428 -7.46356,-2.76428 -11.51784,-1.935 -2.76428,0.55286 -12.16283,7.00285 -13.54497,5.71285 0,0 3.0407,-0.645 9.12212,-5.25213 -7.46356,-6.17357 -21.92996,-6.91071 -29.85423,-6.81856 z m 41.0035,37.13351 c 0.27643,-1.75071 1.65857,-2.94857 2.94857,-2.76428 1.29,0.27642 2.11928,1.84285 1.75071,3.59356 -0.27643,1.75071 -1.65857,2.94857 -2.94857,2.76428 -1.28999,-0.18428 -2.11928,-1.75071 -1.75071,-3.59356 z"
         id="path1"
         style="fill:#ff8888;fill-opacity:1;stroke-width:0.921427" /></g><circle
       style="fill:#ff9999;fill-opacity:0;stroke:#ff1414;stroke-width:24;stroke-dasharray:none;stroke-opacity:1"
       id="path2"
       cx="256"
       cy="256"
       r="230.57649" /><path
       style="fill:#ff9999;fill-opacity:0;stroke:#ff1414;stroke-width:28;stroke-dasharray:none;stroke-opacity:1"
       d="M 112.88356,79.944058 399.11644,432.05594"
       id="path3" /></g></svg>
