<?xml version="1.0" encoding="UTF-8" standalone="no"?>
<!-- Created with Inkscape (http://www.inkscape.org/) -->

<svg
   width="512"
   height="512"
   viewBox="0 0 512 512"
   version="1.1"
   id="svg1"
   xml:space="preserve"
   xmlns="http://www.w3.org/2000/svg"
   xmlns:svg="http://www.w3.org/2000/svg"><defs
     id="defs1"><rect
       x="36.058819"
       y="18.697165"
       width="97.269775"
       height="28.268333"
       id="rect5" /></defs><g
     id="layer1"><g
       id="g1"
       transform="matrix(2.4728658,0,0,2.5164946,82.401479,45.56198)"><g
         id="g2"
         transform="matrix(1.4120159,0,0,1.4120159,-20.610478,2.9077706)"><g
           id="g21"><path
             d="m 122.494,13.412 a 3.621,3.621 0 0 1 0.4,2.439 13.493,13.493 0 0 1 -1.344,3.849 c -0.579,1.185 -1.241,2.343 -1.847,3.48 -0.144,0.282 -0.3,0.572 -0.406,0.827 a 5.337,5.337 0 0 0 -0.255,0.8 17.513,17.513 0 0 0 -0.31,1.9 9.483,9.483 0 0 1 -0.545,2.26 9.835,9.835 0 0 1 -0.565,1.033 l -0.3,0.51 c -0.11,0.152 -0.234,0.3 -0.351,0.455 -0.235,0.3 -0.462,0.606 -0.71,0.895 l -0.786,0.813 c -0.261,0.283 -0.544,0.524 -0.826,0.779 -0.282,0.255 -0.552,0.51 -0.848,0.737 -1.157,0.951 -2.349,1.826 -3.521,2.735 a 37.445,37.445 0 0 0 -3.327,2.943 c -1.1,1.061 -2.2,2.184 -3.4,3.279 a 20.826,20.826 0 0 1 -4.051,3.039 9.761,9.761 0 0 1 -2.55,1 7.464,7.464 0 0 1 -2.873,0.117 8.585,8.585 0 0 1 -2.715,-0.937 c -0.337,-0.186 -0.647,-0.4 -0.964,-0.613 a 23.659,23.659 0 0 0 2,6.409 c 1.082,2.453 2.494,4.954 3.907,7.662 a 52.375,52.375 0 0 1 3.948,8.881 31.215,31.215 0 0 1 1.465,10.666 l -0.172,-0.007 c 3.755,3.1 6.07,8.275 4.609,12.767 a 1.024,1.024 0 0 1 -0.33,0.49 c 0.069,0.13 0.138,0.261 0.2,0.4 a 14.187,14.187 0 0 1 0.483,1.468 c 0.11,0.509 0.255,1.081 0.317,1.591 0.158,1.048 0.358,2.171 0.489,3.4 a 26.136,26.136 0 0 1 -0.159,8.089 10.615,10.615 0 0 1 -1.722,4.127 4.526,4.526 0 0 1 -0.675,0.8 12.192,12.192 0 0 1 -9.77,11.479 1.044,1.044 0 0 1 -1.309,-1 c -0.049,-1.667 -0.076,-3.356 -0.014,-5.043 a 29.77,29.77 0 0 1 -2.357,3.251 1.023,1.023 0 0 1 -1.254,0.159 c -4.485,-3.107 -5.449,-9.984 -3.576,-14.834 0.007,-0.021 0.021,-0.034 0.028,-0.055 a 9.92,9.92 0 0 1 -0.592,-2.109 c -0.111,-0.695 -0.2,-1.336 -0.283,-2.053 a 24.629,24.629 0 0 1 -0.186,-3.624 c -16.033,1.02 -32.252,-2.763 -48.106,0.848 a 1.311,1.311 0 0 1 -0.358,0.02 h -0.007 a 15.11,15.11 0 0 1 -0.324,3.645 c -0.083,0.448 -0.241,0.882 -0.358,1.33 -0.173,0.441 -0.311,0.889 -0.524,1.343 a 19.187,19.187 0 0 1 -1.357,2.536 c 3.417,4.781 -1.268,11.768 -5.781,14.1 a 1.054,1.054 0 0 1 -1.42,-0.372 c -1,-1.95 -0.978,-4.369 -1.226,-6.636 a 11.723,11.723 0 0 1 -5.05,5.512 1.031,1.031 0 0 1 -1.254,-0.158 14.071,14.071 0 0 1 -3.507,-9.542 4.944,4.944 0 0 1 -0.9,-1.565 11.682,11.682 0 0 1 -0.579,-3.658 c -0.028,-1.165 0.035,-2.212 0.055,-3.294 0.021,-0.523 0.049,-1.04 0.069,-1.55 0.062,-0.544 0.111,-1.089 0.193,-1.6 a 18.282,18.282 0 0 1 0.724,-2.97 14.946,14.946 0 0 1 1.77,-3.583 0.917,0.917 0 0 1 0.069,-0.455 23.791,23.791 0 0 1 8.709,-10.92 c 0.055,-1.171 0.083,-2.336 0.131,-3.514 a 25.6,25.6 0 0 1 0.489,-4.093 16.4,16.4 0 0 1 0.6,-1.95 c 0.22,-0.585 0.448,-1.164 0.668,-1.736 l 0.124,-0.372 0.062,-0.289 a 1.891,1.891 0 0 0 -0.083,-0.558 8.455,8.455 0 0 1 -0.268,-1.95 19.148,19.148 0 0 1 1.212,-7.056 c 0.724,-2.108 1.558,-4.03 2.309,-5.856 0.716,-1.819 1.515,-3.6 2.115,-5.216 a 16.985,16.985 0 0 0 0.964,-3.652 7.8,7.8 0 0 1 -3.376,0.855 6.461,6.461 0 0 1 -2.694,-0.586 8.541,8.541 0 0 1 -2.149,-1.412 18.774,18.774 0 0 1 -3,-3.562 c -0.834,-1.22 -1.564,-2.433 -2.281,-3.576 -0.358,-0.572 -0.717,-1.144 -1.1,-1.647 -0.186,-0.255 -0.365,-0.517 -0.551,-0.772 -0.186,-0.255 -0.4,-0.489 -0.6,-0.73 -0.8,-0.965 -1.688,-1.874 -2.515,-2.873 a 13.027,13.027 0 0 1 -1.142,-1.59 10.625,10.625 0 0 1 -0.9,-1.73 c -0.062,-0.144 -0.137,-0.289 -0.192,-0.44 l -0.131,-0.448 -0.028,-0.1 -0.007,-0.027 -0.007,-0.035 c 0,-0.034 -0.02,-0.027 -0.034,-0.013 l -0.31,0.1 A 19.564,19.564 0 0 1 10.256,27.606 6.8,6.8 0 0 1 9.409,27.689 6.2,6.2 0 0 1 8.534,27.696 4.354,4.354 0 0 1 7.659,27.596 6.989,6.989 0 0 1 6.832,27.403 3.928,3.928 0 0 1 5.853,26.968 1.707,1.707 0 0 1 5.095,25.942 1.951,1.951 0 0 1 5.075,25.308 4.732,4.732 0 0 1 5.268,24.702 4.142,4.142 0 0 1 5.516,24.254 L 5.729,23.93 A 11.835,11.835 0 0 0 6.429,22.855 1.823,1.823 0 0 0 6.7,22 5.554,5.554 0 0 0 5.9,20 4.775,4.775 0 0 1 5.411,18.636 2.555,2.555 0 0 1 5.687,16.982 L 5.9,16.644 c 0.083,-0.1 0.166,-0.186 0.255,-0.282 A 2.343,2.343 0 0 1 6.776,15.88 2.64,2.64 0 0 1 7.52,15.59 3.6,3.6 0 0 1 8.236,15.556 c 0.869,0.062 1.516,0.275 1.957,0.248 a 8.557,8.557 0 0 0 3.19,-1.02 25.6,25.6 0 0 0 2.543,-1.6 c 1.467,-1.095 2.639,-2.067 3.631,-2.721 a 13.052,13.052 0 0 1 1.261,-0.744 11.639,11.639 0 0 1 1.5,-1.73 5.853,5.853 0 0 1 0.648,-0.565 l 0.324,-0.261 0.083,-0.069 0.02,-0.014 0.083,-0.062 0.048,-0.028 0.2,-0.117 c 0.255,-0.151 0.524,-0.3 0.786,-0.454 l 0.4,-0.235 0.427,-0.186 a 20.058,20.058 0 0 1 7.6,-1.626 c 0.675,0 1.4,-0.034 2.053,0 0.338,0.007 0.676,0.021 1.013,0.028 0.359,0.027 0.724,0.062 1.089,0.1 0.365,0.038 0.737,0.062 1.1,0.124 0.365,0.083 0.738,0.173 1.1,0.255 a 13.137,13.137 0 0 1 2.211,0.751 7.152,7.152 0 0 1 1,0.482 c 0.317,0.166 0.641,0.338 0.958,0.5 l 0.193,0.111 0.124,0.075 0.241,0.159 q 0.249,0.165 0.475,0.331 c 0.317,0.213 0.614,0.441 0.917,0.661 1.192,0.889 2.349,1.8 3.555,2.577 a 13.82,13.82 0 0 0 1.812,1.027 l 0.448,0.192 0.441,0.152 a 3.587,3.587 0 0 0 0.434,0.11 c 0.069,0.014 0.145,0.042 0.207,0.049 l 0.151,0.013 a 1.326,1.326 0 0 0 0.4,0.014 l 0.275,-0.021 0.069,-0.006 h 0.008 l 0.082,-0.021 c 0.11,-0.042 0.221,-0.048 0.344,-0.1 l 0.386,-0.165 c 0.552,-0.269 1.13,-0.641 1.758,-1.033 0.344,-0.193 0.62,-0.379 1.054,-0.579 A 7.553,7.553 0 0 1 57.909,9.731 L 58.04,9.689 58.075,9.683 58.144,9.675 58.288,9.648 58.578,9.6 59.157,9.51 a 6.888,6.888 0 0 1 1.109,-0.1 c 0.751,-0.049 1.4,-0.028 2.067,-0.028 0.667,0 1.33,-0.014 1.977,-0.034 2.563,-0.062 5.037,-0.3 7.393,-0.379 1.178,-0.048 2.315,-0.069 3.452,-0.014 0.572,0.007 1.1,0.055 1.612,0.11 0.256,0.021 0.51,0.048 0.765,0.069 0.262,0.041 0.524,0.076 0.779,0.117 a 5.245,5.245 0 0 0 2.4,0.035 A 10.289,10.289 0 0 0 82.628,8 C 83.255,7.518 83.951,7.125 84.537,6.753 85.184,6.473 85.763,6.2 86.3,6 86.769,5.862 87.175,5.752 87.554,5.656 A 12.807,12.807 0 0 1 92.267,4.085 7.124,7.124 0 0 1 93.6,4 c 0.227,0.007 0.454,0.007 0.682,0.007 0.227,0.027 0.455,0.062 0.689,0.1 a 6.458,6.458 0 0 1 1.364,0.283 c 0.448,0.145 0.909,0.262 1.35,0.434 a 28.211,28.211 0 0 1 5,2.845 47.358,47.358 0 0 0 4.961,3.2 17.4,17.4 0 0 0 5.794,1.971 11.834,11.834 0 0 0 1.55,0.1 6.326,6.326 0 0 0 1.44,-0.289 c 0.531,-0.165 1.1,-0.358 1.751,-0.51 a 5.792,5.792 0 0 1 2.149,-0.048 3.731,3.731 0 0 1 0.565,0.145 2.733,2.733 0 0 1 0.579,0.241 2.613,2.613 0 0 1 1.02,0.933 z m -1.53,2.17 a 1.764,1.764 0 0 0 -0.117,-1.144 c -0.1,-0.213 -0.413,-0.365 -0.861,-0.454 a 3.538,3.538 0 0 0 -1.4,0.02 c -0.5,0.111 -1.047,0.29 -1.619,0.462 A 7.74,7.74 0 0 1 115.031,14.817 13.164,13.164 0 0 1 113.2,14.7 16.7,16.7 0 0 1 109.81,13.839 21,21 0 0 1 106.799,12.475 48.449,48.449 0 0 1 101.68,9.112 26.553,26.553 0 0 0 97.057,6.384 C 96.671,6.233 96.278,6.129 95.892,5.998 A 5.339,5.339 0 0 0 94.735,5.736 l -0.572,-0.1 H 93.584 A 5.2,5.2 0 0 0 92.447,5.677 11.478,11.478 0 0 0 88.272,7.007 20.339,20.339 0 0 0 84.84,9.3 29.822,29.822 0 0 0 82.056,11.884 c -0.847,0.861 -1.6,1.73 -2.294,2.57 -0.179,0.207 -0.345,0.414 -0.51,0.62 l -0.551,0.7 c -0.242,0.331 -0.483,0.648 -0.724,0.965 -0.117,0.158 -0.234,0.317 -0.351,0.468 l -0.173,0.228 c -0.048,0.055 -0.089,0.055 -0.137,0.082 -0.958,-2.59 -1.364,-2.177 -2.247,-1.963 A 7.455,7.455 0 0 0 72.968,17 27.336,27.336 0 0 0 70.274,19.962 c -1.309,1.647 -1.771,2.453 -1.86,2.419 -0.11,-0.042 0.193,-0.985 1.364,-2.777 a 21.6,21.6 0 0 1 2.57,-3.245 8.118,8.118 0 0 1 2.322,-1.759 2.373,2.373 0 0 1 1.936,-0.117 1.612,1.612 0 0 1 0.469,0.289 l 0.1,0.083 c 0.048,0.034 0.076,0.055 0.076,0.062 l 0.062,0.069 a 1.039,1.039 0 0 1 0.186,0.324 c 0.014,0.013 0.02,0.055 0.034,0.055 l 0.048,-0.076 0.1,-0.138 c 0.062,-0.09 0.124,-0.179 0.186,-0.276 0.138,-0.179 0.275,-0.365 0.413,-0.558 0.159,-0.213 0.324,-0.434 0.5,-0.654 0.682,-0.875 1.433,-1.792 2.288,-2.708 0.1,-0.117 0.213,-0.234 0.324,-0.351 l -0.1,0.048 a 2.985,2.985 0 0 1 -0.827,0.255 4.757,4.757 0 0 1 -0.813,0.069 c -0.516,-0.007 -1.033,-0.042 -1.522,-0.09 -0.235,-0.021 -0.476,-0.048 -0.71,-0.069 -0.255,-0.013 -0.51,-0.021 -0.772,-0.034 -0.516,-0.028 -1.047,-0.048 -1.557,-0.035 -1.019,0 -2.136,0.062 -3.272,0.145 -2.288,0.166 -4.762,0.469 -7.428,0.6 -0.661,0.034 -1.316,0.055 -1.991,0.075 -0.675,0.02 -1.378,0.007 -2,0.055 a 5.85,5.85 0 0 0 -0.937,0.1 l -0.448,0.076 -0.228,0.034 H 58.67 l -0.055,-0.014 h -0.007 l -0.448,0.193 c -0.192,0.055 -0.248,0.152 -0.378,0.207 a 8.105,8.105 0 0 0 -0.8,0.461 22.031,22.031 0 0 1 -1.95,1.158 l -0.606,0.269 c -0.214,0.076 -0.469,0.131 -0.709,0.193 l -0.18,0.041 -0.2,0.021 -0.275,0.02 a 3.332,3.332 0 0 1 -0.7,-0.007 L 51.969,14.341 C 51.845,14.327 51.749,14.3 51.632,14.279 A 6.392,6.392 0 0 1 51,14.108 L 50.39,13.9 49.811,13.652 A 15.7,15.7 0 0 1 47.7,12.468 c -1.33,-0.861 -2.509,-1.8 -3.673,-2.673 L 43.166,9.161 c -0.138,-0.1 -0.283,-0.2 -0.421,-0.29 L 42.539,8.734 42.439,8.665 42.384,8.637 Q 41.898,8.379 41.433,8.12 A 6.753,6.753 0 0 0 40.51,7.665 11.437,11.437 0 0 0 38.726,7.045 C 38.416,6.97 38.105,6.894 37.802,6.818 37.499,6.742 37.168,6.742 36.851,6.701 l -0.944,-0.1 C 35.57,6.58 35.232,6.566 34.907,6.545 34.225,6.504 33.625,6.525 32.991,6.511 a 18.62,18.62 0 0 0 -6.876,1.247 l -0.372,0.145 -0.352,0.186 c -0.234,0.124 -0.468,0.248 -0.7,0.372 L 24.518,8.55 24.477,8.571 24.415,8.619 24.084,8.867 A 4.277,4.277 0 0 0 23.478,9.35 13.569,13.569 0 0 0 21.575,11.5 c -1.116,1.551 -2.018,3.108 -2.949,4.417 a 14.572,14.572 0 0 1 -2.8,3.093 7.842,7.842 0 0 1 -2.308,1.282 c -0.579,0.165 -0.889,0.214 -0.917,0.138 -0.082,-0.2 1.124,-0.6 2.626,-2.095 a 16.053,16.053 0 0 0 2.3,-3.128 c 0.675,-1.109 1.351,-2.425 2.205,-3.838 -0.827,0.7 -1.8,1.633 -3.1,2.729 a 25.138,25.138 0 0 1 -2.59,1.826 9.653,9.653 0 0 1 -3.714,1.33 16.129,16.129 0 0 1 -2.143,-0.173 2.868,2.868 0 0 0 -0.365,0.028 c -0.083,0.055 -0.193,0.048 -0.269,0.124 a 1.433,1.433 0 0 0 -0.462,0.5 0.922,0.922 0 0 0 -0.075,0.613 3.306,3.306 0 0 0 0.365,0.9 c 0.1,0.193 0.22,0.406 0.338,0.627 l 0.255,0.255 a 2.78,2.78 0 0 1 0.64,1.082 2.14,2.14 0 0 1 0.083,0.75 2.211,2.211 0 0 1 -0.228,0.779 3.551,3.551 0 0 1 -0.3,0.475 c -0.062,0.152 -0.124,0.3 -0.192,0.441 A 14.44,14.44 0 0 1 7.2,24.9 l -0.172,0.269 c -0.062,0.1 -0.062,0.11 -0.1,0.172 a 0.133,0.133 0 0 0 -0.021,0.1 c 0.007,0.034 0.042,0.055 0.062,0.069 a 2.02,2.02 0 0 0 0.379,0.124 5.286,5.286 0 0 0 1.9,0.186 21.993,21.993 0 0 0 3.342,-0.724 c 0.53,-0.158 1.075,-0.331 1.633,-0.523 l 0.055,-0.014 0.751,-0.3 0.1,-0.035 c 0.035,-0.021 0.069,-0.034 0.069,0.014 0.648,-0.228 1.3,-0.476 1.971,-0.751 0.393,-0.166 0.806,-0.345 1.171,-0.524 0.365,-0.213 0.772,-0.413 1.137,-0.654 A 13.3,13.3 0 0 0 21.6,20.57 c 0.675,-0.689 1.33,-1.467 2.012,-2.294 0.661,-0.834 1.467,-1.674 2.239,-2.549 0.806,-0.834 1.668,-1.681 2.543,-2.515 0.441,-0.42 0.882,-0.841 1.336,-1.268 0.435,-0.434 0.869,-0.875 1.316,-1.316 a 15.8,15.8 0 0 0 1.254,-1.385 9.5,9.5 0 0 1 1.55,-1.64 2.63,2.63 0 0 1 1.509,-0.5 3.261,3.261 0 0 1 1.4,0.324 5.613,5.613 0 0 1 2.005,1.53 12.221,12.221 0 0 1 1.336,1.926 21.072,21.072 0 0 1 1.1,2.046 15.113,15.113 0 0 1 1.179,4.755 c 0.048,0.385 0.089,0.778 0.151,1.157 0.062,0.379 0.124,0.751 0.2,1.116 0.1,0.352 0.193,0.71 0.289,1.068 0.255,0.606 0.517,1.22 0.779,1.84 l 0.055,0.138 c 0.007,0.041 0.083,0.11 0.007,0.124 l -0.248,0.117 -0.5,0.241 -1.013,0.5 a 10.871,10.871 0 0 0 -0.937,0.62 5.889,5.889 0 0 0 -0.8,0.758 5.8,5.8 0 0 0 -0.683,0.882 9.968,9.968 0 0 0 -1.309,4.2 3.218,3.218 0 0 1 2.619,0.524 1.853,1.853 0 0 1 0.723,0.819 3.718,3.718 0 0 1 0.166,2.143 6.534,6.534 0 0 1 -0.772,2.054 3.881,3.881 0 0 1 -1.923,1.757 2.282,2.282 0 0 1 -1.653,-0.049 l -0.3,-0.151 -0.062,-0.035 a 1.175,1.175 0 0 1 -0.1,-0.089 c -0.041,-0.014 -0.069,0.117 -0.11,0.165 -0.082,0.186 -0.172,0.372 -0.255,0.558 a 5.578,5.578 0 0 0 -0.427,1.778 10.443,10.443 0 0 0 0.1,2.074 c 0.021,0.186 0.048,0.379 0.069,0.572 0.021,0.193 0.021,0.413 0.035,0.62 a 11.3,11.3 0 0 1 0.027,1.288 16.928,16.928 0 0 1 -1.088,5.271 c -0.627,1.764 -1.358,3.445 -2.081,5.319 -0.744,1.846 -1.543,3.748 -2.212,5.753 a 17.48,17.48 0 0 0 -1.075,6.305 6.823,6.823 0 0 0 0.228,1.6 l 0.055,0.227 0.055,0.317 a 3.389,3.389 0 0 1 0.02,0.7 c -0.041,0.207 -0.075,0.427 -0.123,0.613 l -0.166,0.5 c -0.22,0.579 -0.441,1.172 -0.668,1.764 a 15.744,15.744 0 0 0 -0.524,1.7 23.6,23.6 0 0 0 -0.434,3.728 c -0.027,0.764 -0.055,1.557 -0.076,2.363 a 9,9 0 0 1 8.6,0.909 c 0.255,0.166 0.489,0.345 0.717,0.517 A 24.275,24.275 0 0 1 36.06,79.868 c -1.074,-1.564 -1.508,-2.508 -1.4,-2.6 0.137,-0.11 0.84,0.683 2.108,2.047 a 51.131,51.131 0 0 0 5.732,5.291 40.765,40.765 0 0 0 9.867,5.829 29.5,29.5 0 0 0 6.421,1.881 c 0.572,0.083 1.144,0.228 1.73,0.255 0.579,0.049 1.171,0.09 1.764,0.138 a 24.2,24.2 0 0 0 3.589,-0.179 l 0.841,-0.1 0.923,-0.213 c 0.62,-0.138 1.233,-0.269 1.84,-0.407 0.607,-0.138 1.109,-0.372 1.66,-0.551 l 0.813,-0.276 a 5.037,5.037 0 0 0 0.807,-0.316 31.554,31.554 0 0 0 5.856,-3.253 c 0.441,-0.3 0.875,-0.613 1.3,-0.909 0.413,-0.324 0.806,-0.668 1.2,-0.992 0.394,-0.324 0.786,-0.648 1.171,-0.958 l 1.062,-1.02 c 0.351,-0.33 0.7,-0.654 1.026,-0.978 0.326,-0.324 0.634,-0.675 0.944,-1 0.31,-0.325 0.606,-0.655 0.9,-0.971 0.158,-0.173 0.317,-0.338 0.475,-0.51 0.152,-0.152 0.3,-0.3 0.448,-0.448 a 16.243,16.243 0 0 1 1.888,-1.647 c 0.33,-0.227 0.647,-0.441 0.958,-0.648 0.311,-0.207 0.633,-0.358 0.937,-0.53 a 16.4,16.4 0 0 1 1.736,-0.813 c 0.558,-0.207 1.068,-0.365 1.522,-0.51 a 14.121,14.121 0 0 1 2.157,-0.434 c 0.5,-0.048 0.772,-0.041 0.793,0.034 0.041,0.18 -0.951,0.517 -2.639,1.247 -0.186,0.1 -0.386,0.193 -0.593,0.29 a 10.3,10.3 0 0 1 5.767,1.44 29.083,29.083 0 0 0 -1.371,-8.737 51.748,51.748 0 0 0 -3.783,-8.557 c -1.385,-2.687 -2.8,-5.23 -3.92,-7.814 a 23.917,23.917 0 0 1 -2.17,-7.819 24.343,24.343 0 0 1 0.172,-3.735 c 0.027,-0.276 0.048,-0.551 0.075,-0.827 0,-0.275 -0.006,-0.551 -0.006,-0.82 a 11.028,11.028 0 0 0 -0.062,-1.591 19.61,19.61 0 0 0 -1.406,-5.774 47.524,47.524 0 0 0 -2.308,-4.844 12.5,12.5 0 0 0 -2.6,-3.6 4.5,4.5 0 0 0 -3.3,-1.048 6.09,6.09 0 0 0 -2.963,0.827 6.434,6.434 0 0 0 -2.645,3.693 14.467,14.467 0 0 0 -0.524,2.7 c -0.062,0.593 -0.117,0.875 -0.186,0.875 -0.069,0 -0.158,-0.275 -0.234,-0.882 a 9.785,9.785 0 0 1 0.158,-2.894 8.2,8.2 0 0 1 0.793,-2.2 6.317,6.317 0 0 1 2,-2.267 7.191,7.191 0 0 1 3.508,-1.172 6.09,6.09 0 0 1 2.06,0.131 7.084,7.084 0 0 0 2.032,-2.928 34.729,34.729 0 0 0 0.937,-3.872 14.663,14.663 0 0 1 0.655,-2.047 8.547,8.547 0 0 1 0.468,-0.978 6.328,6.328 0 0 1 0.627,-0.951 6.468,6.468 0 0 1 3.742,-2.253 8.772,8.772 0 0 1 4,0.166 9.018,9.018 0 0 1 3.388,1.734 l 0.358,0.3 0.331,0.352 a 5.448,5.448 0 0 1 0.565,0.7 c 0.337,0.462 0.668,0.917 0.944,1.378 0.585,0.91 1.081,1.819 1.577,2.674 a 29.991,29.991 0 0 0 2.991,4.54 l 0.833,0.855 a 9.137,9.137 0 0 0 0.91,0.654 10.948,10.948 0 0 0 1.006,0.572 c 0.338,0.186 0.689,0.338 1.033,0.5 1.385,0.627 2.75,1.123 4.031,1.619 a 11.382,11.382 0 0 0 3.431,0.882 4.157,4.157 0 0 0 0.731,-0.041 c 0.227,-0.034 0.434,-0.124 0.654,-0.172 0.2,-0.1 0.386,-0.221 0.579,-0.317 0.069,-0.049 0.131,-0.1 0.2,-0.152 0.034,-0.193 0.075,-0.393 0.124,-0.592 a 8.707,8.707 0 0 1 0.365,-1.117 c 0.158,-0.358 0.324,-0.654 0.482,-0.957 0,-0.007 0.007,-0.014 0.007,-0.021 -0.069,-0.592 -0.207,-1.171 -0.31,-1.709 a 10.511,10.511 0 0 1 -0.22,-1.853 4.206,4.206 0 0 1 0.626,-2.315 c 0.318,-0.414 0.49,-0.565 0.545,-0.524 0.055,0.041 0.007,0.276 -0.166,0.7 a 4.9,4.9 0 0 0 -0.2,2.095 11.724,11.724 0 0 0 0.372,1.66 c 0.048,0.165 0.1,0.331 0.144,0.5 0.365,-0.661 0.717,-1.309 1.034,-1.957 a 12.091,12.091 0 0 0 1.187,-3.245 z m -4.63,12.6 a 6.332,6.332 0 0 0 0.365,-1.5 7.1,7.1 0 0 1 -0.889,0.283 6.187,6.187 0 0 1 -1,0.1 12.37,12.37 0 0 1 -3.975,-0.848 c -1.3,-0.455 -2.694,-0.916 -4.176,-1.543 -0.372,-0.165 -0.751,-0.317 -1.13,-0.517 a 12.622,12.622 0 0 1 -1.15,-0.62 10.643,10.643 0 0 1 -1.158,-0.806 c -0.344,-0.317 -0.675,-0.661 -1.013,-1 a 29.743,29.743 0 0 1 -3.279,-4.8 c -0.51,-0.854 -1.013,-1.736 -1.571,-2.576 -0.262,-0.441 -0.565,-0.834 -0.862,-1.24 l -0.227,-0.311 c -0.076,-0.1 -0.158,-0.165 -0.234,-0.248 l -0.228,-0.248 -0.275,-0.22 a 7.147,7.147 0 0 0 -5.7,-1.426 4.406,4.406 0 0 0 -2.549,1.536 5.921,5.921 0 0 0 -0.8,1.433 11.26,11.26 0 0 0 -0.544,1.743 36.343,36.343 0 0 1 -1.01,4.126 8.942,8.942 0 0 1 -1.95,3.141 c 0.069,0.056 0.152,0.1 0.221,0.159 a 13.492,13.492 0 0 1 3.073,3.969 43.649,43.649 0 0 1 2.508,4.981 20.781,20.781 0 0 1 1.626,6.243 13.47,13.47 0 0 1 0.1,1.75 c 0.007,0.3 0.007,0.6 0.014,0.9 -0.021,0.3 -0.042,0.6 -0.069,0.9 -0.041,0.654 -0.1,1.233 -0.131,1.8 l 0.138,-0.159 a 11.939,11.939 0 0 0 1.9,1.351 5.927,5.927 0 0 0 6.166,-0.165 19.476,19.476 0 0 0 3.645,-2.75 c 1.151,-1.04 2.239,-2.149 3.355,-3.231 a 39.13,39.13 0 0 1 3.507,-3.087 c 1.206,-0.93 2.391,-1.791 3.48,-2.687 0.282,-0.22 0.524,-0.455 0.792,-0.682 a 9.066,9.066 0 0 0 0.745,-0.7 l 0.7,-0.716 c 0.214,-0.255 0.407,-0.51 0.607,-0.765 0.1,-0.131 0.206,-0.255 0.3,-0.379 l 0.234,-0.406 c 0.141,-0.259 0.334,-0.528 0.444,-0.783 z m -11.451,78.905 a 28.609,28.609 0 0 0 0.3,-7.428 c -0.069,-1.157 -0.193,-2.294 -0.269,-3.355 -0.027,-0.552 -0.11,-0.993 -0.158,-1.454 -0.076,-0.448 -0.173,-0.875 -0.276,-1.268 a 7.489,7.489 0 0 0 -2.053,-3.28 c -0.717,-0.654 -1.137,-1.061 -1.054,-1.206 0.083,-0.145 0.641,0 1.591,0.483 a 8.148,8.148 0 0 1 1.433,1.061 c 1.378,-7.551 -9.377,-16.378 -15.288,-9.522 -3.053,3.528 -3.818,8.8 -2.846,13.346 0.034,-0.1 0.062,-0.179 0.1,-0.282 a 10.7,10.7 0 0 1 1.881,-3.2 9.5,9.5 0 0 1 2.481,-2.033 12.847,12.847 0 0 1 4.189,-1.467 c 1.02,-0.166 1.6,-0.138 1.633,0.006 0.048,0.166 -0.462,0.434 -1.365,0.862 a 20.236,20.236 0 0 0 -3.562,1.977 8.761,8.761 0 0 0 -1.874,1.867 9.7,9.7 0 0 0 -1.357,2.681 c -0.159,0.482 -0.351,1.2 -0.455,1.66 a 5.037,5.037 0 0 0 -0.131,0.813 7.163,7.163 0 0 0 -0.062,0.875 24.212,24.212 0 0 0 0.2,3.79 c 0.076,0.647 0.165,1.35 0.262,1.97 a 8.23,8.23 0 0 0 0.441,1.674 11.059,11.059 0 0 0 1.605,2.942 6.122,6.122 0 0 0 2.164,1.819 l 0.255,0.1 a 1.081,1.081 0 0 0 0.282,0.1 c 0.207,0.035 0.51,0.1 0.551,0.1 a 1.009,1.009 0 0 0 0.655,-0.338 5.887,5.887 0 0 0 1.192,-1.75 10.608,10.608 0 0 0 0.613,-1.612 c 0.076,-0.228 0.11,-0.434 0.165,-0.613 0.055,-0.179 0.083,-0.317 0.117,-0.448 0.049,-0.276 0.111,-0.42 0.194,-0.428 0.083,-0.008 0.172,0.125 0.268,0.38 0.021,0.055 0.035,0.13 0.055,0.206 0.007,-0.007 0.014,-0.014 0.021,-0.014 0.131,0.007 0.42,0.51 0.31,1.661 a 18.461,18.461 0 0 1 -0.324,1.853 c -0.021,0.117 -0.041,0.235 -0.062,0.352 a 0.861,0.861 0 0 1 0.2,0.675 1.161,1.161 0 0 1 -0.048,0.448 c -0.055,0.158 -0.111,0.317 -0.166,0.482 0.007,0.055 0.021,0.117 0.028,0.207 v 0.069 c 0.076,0.02 0.152,0.048 0.227,0.069 0.124,0.041 0.255,0.082 0.379,0.124 l 0.173,0.062 H 97.5 l 0.014,0.007 0.09,0.02 c 0.124,0.028 0.255,0.055 0.379,0.09 0.117,0.02 0.2,0.007 0.3,0.02 0.172,0.014 0.42,0.021 0.675,0.021 0.255,0 0.5,-0.014 0.765,-0.028 a 11.1,11.1 0 0 0 1.571,-0.2 6.424,6.424 0 0 0 0.716,-0.2 c 0.076,-0.041 0.159,-0.083 0.241,-0.117 h 0.008 l 0.055,-0.042 0.179,-0.151 0.275,-0.214 a 0.954,0.954 0 0 1 0.7,-0.758 1.324,1.324 0 0 0 0.11,-0.172 9.081,9.081 0 0 0 1.305,-3.29 z m -2.412,6.862 a 5.8,5.8 0 0 1 -0.778,0.172 12.3,12.3 0 0 1 -1.909,0.145 c -0.3,-0.007 -0.606,0 -0.9,-0.034 a 7.312,7.312 0 0 1 -0.944,-0.111 c -0.165,-0.034 -0.344,-0.062 -0.482,-0.1 l -0.372,-0.124 -0.089,-0.028 -0.118,-0.041 -0.02,-0.007 -0.042,-0.021 -0.165,-0.076 -0.324,-0.137 -0.138,-0.062 a 40.5,40.5 0 0 0 -0.475,8.068 9.847,9.847 0 0 0 6.756,-7.642 z m -8.275,-1.6 a 2.32,2.32 0 0 1 -0.585,0.145 5.144,5.144 0 0 1 -0.931,-0.048 7.11,7.11 0 0 1 -0.964,-0.234 7.83,7.83 0 0 1 -3.121,-2.253 c -0.241,-0.29 -0.469,-0.593 -0.682,-0.9 -0.676,3.438 -0.062,7.613 2.5,9.942 A 26.717,26.717 0 0 0 94.2,112.352 Z M 84.654,84.964 c -0.338,0.345 -0.676,0.7 -1.02,1.048 -0.393,0.351 -0.786,0.7 -1.192,1.061 -0.406,0.361 -0.806,0.73 -1.233,1.082 -0.448,0.33 -0.9,0.668 -1.358,1.012 a 31.948,31.948 0 0 1 -6.208,3.6 5.881,5.881 0 0 1 -0.888,0.358 c -0.3,0.1 -0.607,0.214 -0.917,0.324 -0.613,0.2 -1.24,0.455 -1.853,0.613 -0.613,0.158 -1.22,0.283 -1.833,0.421 l -0.93,0.213 -0.124,0.021 -0.062,0.007 -0.124,0.014 -0.248,0.034 -0.5,0.055 a 25.621,25.621 0 0 1 -3.969,0.193 l -1.929,-0.165 c -0.641,-0.042 -1.261,-0.2 -1.881,-0.3 A 30.3,30.3 0 0 1 51.529,92.399 38.048,38.048 0 0 1 41.449,85.86 c -0.51,-0.461 -0.985,-0.916 -1.44,-1.357 2.453,3.769 1.785,8.7 -0.813,12.519 15.041,-2.756 30.337,0.441 45.509,-0.393 A 20.035,20.035 0 0 1 84.654,84.964 Z m -43.4,-62.857 -0.179,-0.434 c -0.11,-0.427 -0.227,-0.854 -0.344,-1.282 -0.083,-0.42 -0.145,-0.84 -0.214,-1.253 -0.069,-0.413 -0.1,-0.807 -0.158,-1.206 A 13.062,13.062 0 0 0 39.38,13.77 21.126,21.126 0 0 0 38.388,11.896 10.968,10.968 0 0 0 37.265,10.256 3.6,3.6 0 0 0 35.956,9.229 1.333,1.333 0 0 0 35.37,9.064 a 0.637,0.637 0 0 0 -0.4,0.131 8.245,8.245 0 0 0 -1.185,1.282 16.035,16.035 0 0 1 -1.378,1.481 l -1.378,1.357 c -0.462,0.421 -0.91,0.841 -1.358,1.254 -0.888,0.827 -1.715,1.626 -2.515,2.419 -0.751,0.833 -1.495,1.584 -2.191,2.432 -0.7,0.82 -1.405,1.626 -2.163,2.37 a 14.287,14.287 0 0 1 -2.439,1.929 c -0.434,0.276 -0.869,0.476 -1.3,0.71 -0.454,0.213 -0.881,0.379 -1.3,0.544 -0.723,0.283 -1.433,0.531 -2.122,0.758 0.062,0.2 0.117,0.4 0.179,0.6 l 0.117,0.386 c 0.042,0.123 0.111,0.24 0.166,0.365 a 8.085,8.085 0 0 0 0.758,1.426 10.869,10.869 0 0 0 1.013,1.371 c 0.757,0.909 1.66,1.812 2.528,2.853 0.214,0.261 0.434,0.516 0.648,0.785 0.214,0.269 0.413,0.558 0.613,0.84 0.427,0.565 0.792,1.144 1.164,1.723 0.745,1.171 1.461,2.356 2.253,3.507 a 17.21,17.21 0 0 0 2.674,3.163 5.247,5.247 0 0 0 3.472,1.488 6.777,6.777 0 0 0 3.48,-1.213 c 0,-0.09 0,-0.186 -0.007,-0.289 -0.021,-0.193 -0.041,-0.386 -0.062,-0.579 a 12.483,12.483 0 0 1 -0.055,-2.391 7.1,7.1 0 0 1 0.606,-2.288 q 0.124,-0.247 0.248,-0.5 A 8.321,8.321 0 0 1 35.85,36.24 c 0.131,-0.213 0.255,-0.427 0.385,-0.634 a 36.638,36.638 0 0 1 0.028,-4.981 12.1,12.1 0 0 1 1.681,-5.5 7.742,7.742 0 0 1 0.9,-1.158 7.573,7.573 0 0 1 1.061,-0.992 13.892,13.892 0 0 1 1.157,-0.779 z M 39.82,33.558 a 1.006,1.006 0 0 0 -0.193,-0.344 c -0.489,-0.551 -1.419,-0.152 -0.916,0.324 a 1.921,1.921 0 0 0 0.227,0.165 0.731,0.731 0 0 0 0.882,-0.145 z m -3.135,63.347 c 3.6,-4.327 4.355,-11.382 -1.75,-14.255 -4.892,-2.3 -9.722,1.515 -12.8,5.856 a 24.868,24.868 0 0 1 2.315,-1.4 c 1.6,-0.826 2.55,-1.123 2.619,-1 0.082,0.159 -0.731,0.724 -2.136,1.771 -0.7,0.524 -1.557,1.171 -2.474,1.984 a 17.853,17.853 0 0 0 -2.77,3.018 c -0.006,0.007 -0.006,0.014 -0.013,0.021 -0.035,0.083 -0.076,0.172 -0.11,0.262 a 1.13,1.13 0 0 1 -0.393,0.5 14.021,14.021 0 0 0 -1.606,3.562 18.634,18.634 0 0 0 -0.53,2.666 c -0.055,0.462 -0.076,0.93 -0.124,1.4 -0.007,0.51 -0.014,1.027 -0.028,1.55 0.014,1.013 -0.02,2.115 0.035,3.142 a 9.616,9.616 0 0 0 0.489,2.942 2.352,2.352 0 0 0 0.62,0.992 1.571,1.571 0 0 0 0.909,0.386 4.3,4.3 0 0 0 2.6,-0.841 4.744,4.744 0 0 0 1.7,-1.86 l 0.792,-1.9 1.213,1.66 c 0.709,0.965 1.254,2.06 1.757,2.742 0.261,0.352 0.427,0.448 0.62,0.489 a 2.216,2.216 0 0 0 0.957,-0.089 l 0.373,-0.124 0.089,-0.034 0.035,-0.014 H 29.1 l 0.145,-0.076 0.586,-0.269 c 0.186,-0.11 0.365,-0.241 0.544,-0.358 a 3.19,3.19 0 0 0 0.524,-0.4 10.03,10.03 0 0 0 1.764,-1.963 17.719,17.719 0 0 0 1.329,-2.281 c 0.186,-0.345 0.331,-0.751 0.489,-1.116 0.124,-0.386 0.283,-0.758 0.366,-1.137 a 14.674,14.674 0 0 0 0.475,-4.375 30.062,30.062 0 0 0 -1.116,-6.477 c -0.4,-1.523 -0.62,-2.384 -0.469,-2.439 0.131,-0.055 0.613,0.682 1.282,2.157 a 23.778,23.778 0 0 1 1.666,5.308 z m -8.1,23.185 c 2.942,-2.074 6.332,-6.711 4.513,-9.984 a 9.432,9.432 0 0 1 -0.786,0.772 4.666,4.666 0 0 1 -0.668,0.531 c -0.235,0.165 -0.469,0.344 -0.724,0.489 -0.255,0.145 -0.53,0.269 -0.8,0.4 l -0.207,0.1 -0.227,0.082 -0.365,0.131 a 4.475,4.475 0 0 1 -1.909,0.221 c 0.523,2.373 0.344,4.943 1.171,7.258 z m -7.958,-1.357 c 2.955,-2.026 4.575,-4.761 3.506,-8.406 a 9.022,9.022 0 0 1 -1.288,1.075 6.464,6.464 0 0 1 -4.12,1.2 2.516,2.516 0 0 1 -0.4,-0.062 11.438,11.438 0 0 0 2.3,6.193 z"
             id="path1"
             style="fill:#ff9999;fill-opacity:1" /><path
             d="m 105.847,31.333 a 3.485,3.485 0 0 1 -0.2,1.943 6.689,6.689 0 0 1 -1.074,2.067 10.83,10.83 0 0 1 -2.219,2.122 32.745,32.745 0 0 1 -3.073,1.971 c -0.558,0.33 -1.151,0.668 -1.757,1.005 a 10.28,10.28 0 0 1 -2.053,0.917 3,3 0 0 1 -1.33,0.1 2.328,2.328 0 0 1 -1.267,-0.661 3.347,3.347 0 0 1 -0.442,-0.5 4.33,4.33 0 0 1 -0.351,-0.558 4.007,4.007 0 0 1 -0.282,-0.545 l -0.145,-0.3 -0.1,-0.282 q -0.391,-1.158 -0.806,-2.35 c -0.207,-0.8 -0.413,-1.612 -0.627,-2.432 -0.151,-0.6 -0.3,-1.2 -0.448,-1.784 a 15.3,15.3 0 0 0 -0.5,-1.737 c -0.193,-0.572 -0.379,-1.137 -0.565,-1.7 l -0.055,-0.165 -0.089,-0.2 -0.173,-0.4 c -0.117,-0.275 -0.234,-0.537 -0.344,-0.806 a 8.9,8.9 0 0 1 -0.558,-1.7 3.348,3.348 0 0 1 -0.048,-0.993 1.8,1.8 0 0 1 0.144,-0.523 l 0.124,-0.255 c 0.055,-0.076 0.111,-0.145 0.172,-0.214 a 2.984,2.984 0 0 1 1.661,-0.854 c 0.269,-0.042 0.537,-0.083 0.806,-0.111 0.048,0 0.1,-0.006 0.152,-0.006 a 2.736,2.736 0 0 0 -1.172,-0.979 c -0.682,-0.358 -1.4,-0.613 -2.053,-0.985 l -0.331,-0.186 0.166,-0.31 a 6.56,6.56 0 0 1 1.743,-1.971 c 0.572,-0.455 1.061,-0.847 1.468,-1.164 0.751,-0.627 1.081,-1.13 1.15,-1.068 0.041,0.027 -0.131,0.572 -0.868,1.364 -0.351,0.386 -0.827,0.82 -1.35,1.316 a 7.817,7.817 0 0 0 -1.268,1.5 c 0.516,0.228 1.109,0.427 1.729,0.724 a 4.453,4.453 0 0 1 1.158,0.737 2.229,2.229 0 0 1 0.737,1.44 l 0.034,0.475 -0.5,0.042 c -0.227,0.02 -0.461,0.034 -0.7,0.055 -0.239,0.021 -0.455,0.069 -0.689,0.11 a 2.03,2.03 0 0 0 -1.061,0.537 1.268,1.268 0 0 0 -0.138,1.1 9.023,9.023 0 0 0 0.517,1.481 c 0.117,0.262 0.234,0.517 0.344,0.779 l 0.186,0.4 0.09,0.2 0.034,0.1 0.021,0.055 0.034,0.1 c 0.193,0.551 0.386,1.116 0.579,1.688 a 16.944,16.944 0 0 1 0.524,1.778 c 0.151,0.606 0.31,1.226 0.468,1.846 0.207,0.806 0.414,1.606 0.613,2.391 0.255,0.758 0.5,1.509 0.751,2.239 l 0.09,0.276 0.11,0.241 a 4.433,4.433 0 0 0 0.255,0.5 3.322,3.322 0 0 0 0.262,0.427 2.353,2.353 0 0 0 0.31,0.366 1.442,1.442 0 0 0 1.55,0.33 9.981,9.981 0 0 0 1.847,-0.785 c 0.606,-0.324 1.192,-0.641 1.764,-0.944 1.137,-0.614 2.177,-1.2 3.073,-1.8 a 11.112,11.112 0 0 0 2.191,-1.861 7.012,7.012 0 0 0 1.15,-1.819 c 0.457,-1.072 0.526,-1.774 0.629,-1.774 z"
             id="path2"
             style="fill:#ff9999;fill-opacity:1" /><path
             d="m 89.794,62.207 a 6.858,6.858 0 0 1 0.241,2.666 c -0.042,0.242 -0.076,0.482 -0.138,0.731 -0.062,0.249 -0.159,0.509 -0.248,0.751 l -0.152,0.31 -0.076,0.158 -0.041,0.083 -0.02,0.041 -0.042,0.076 -0.014,0.021 c -0.138,0.2 -0.268,0.406 -0.427,0.613 a 2.71,2.71 0 0 1 -1.433,1.116 1.969,1.969 0 0 1 -1.04,-0.034 2.922,2.922 0 0 1 -0.51,-0.207 8.283,8.283 0 0 1 -1.061,2.039 13.952,13.952 0 0 1 -1.819,2.123 16.346,16.346 0 0 1 -3.783,2.728 8.262,8.262 0 0 1 -3.011,0.944 2.713,2.713 0 0 1 -0.854,-0.021 c -0.193,-0.034 -0.289,-0.069 -0.289,-0.11 0,-0.041 0.1,-0.083 0.282,-0.124 a 5.093,5.093 0 0 0 0.8,-0.186 10.517,10.517 0 0 0 2.68,-1.213 17.915,17.915 0 0 0 3.425,-2.776 13.153,13.153 0 0 0 1.633,-2 6.465,6.465 0 0 0 1.054,-2.405 l 0.145,-0.889 0.771,0.51 c 0.1,0.069 0.214,0.151 0.317,0.214 a 1.439,1.439 0 0 0 0.979,0.289 1.781,1.781 0 0 0 0.812,-0.689 c 0.131,-0.172 0.262,-0.358 0.393,-0.551 l 0.29,-0.559 c 0.062,-0.179 0.124,-0.365 0.193,-0.544 0.048,-0.193 0.082,-0.393 0.124,-0.585 a 8.279,8.279 0 0 0 -0.758,-4.286 26.323,26.323 0 0 0 -1.406,-2.77 c -0.358,-0.654 -0.551,-1.026 -0.482,-1.075 0.069,-0.049 0.379,0.235 0.861,0.82 a 15.278,15.278 0 0 1 1.77,2.684 10.313,10.313 0 0 1 0.834,2.107 z"
             id="path3"
             style="fill:#ff9999;fill-opacity:1" /><path
             d="m 85.97,42.7 a 3.7,3.7 0 0 1 0.123,0.9 1.606,1.606 0 0 1 -0.516,1.3 1.382,1.382 0 0 1 -0.882,0.262 A 3.022,3.022 0 0 1 83.868,45.01 7.48,7.48 0 0 1 82.373,44.28 21.539,21.539 0 0 1 79.5,42.061 2.736,2.736 0 0 1 77.874,42.432 3.585,3.585 0 0 1 76.11,41.743 7.061,7.061 0 0 1 74.119,39.587 5.938,5.938 0 0 1 73.347,37.795 c -0.1,-0.454 -0.055,-0.7 0.007,-0.716 0.165,-0.034 0.448,0.875 1.419,2.046 a 7.592,7.592 0 0 0 1.909,1.73 2.009,2.009 0 0 0 2.494,0.027 l 0.386,-0.331 0.379,0.345 0.324,0.283 a 28.187,28.187 0 0 0 2.694,2.2 7.683,7.683 0 0 0 1.247,0.731 1.191,1.191 0 0 0 0.895,0.124 1.039,1.039 0 0 0 0.345,-0.689 6.031,6.031 0 0 0 0.076,-0.792 c 0.013,-0.455 0.034,-0.717 0.117,-0.738 0.083,-0.021 0.207,0.218 0.331,0.685 z"
             id="path4"
             style="fill:#ff9999;fill-opacity:1" /><path
             d="m 85.832,53.057 a 1.53,1.53 0 0 1 -0.62,1.323 2.389,2.389 0 0 1 -1.585,0.351 6.648,6.648 0 0 1 -2.067,-0.572 c 0.007,0.083 0.007,0.159 0.014,0.235 l 0.041,0.365 0.1,0.854 -0.786,-0.165 a 14.367,14.367 0 0 1 -3.307,-1.171 9.663,9.663 0 0 1 -1.3,-0.8 7.89,7.89 0 0 1 -1.034,-0.833 c -1.206,-1.151 -1.564,-2.047 -1.474,-2.13 0.137,-0.131 0.792,0.655 1.984,1.51 a 10.081,10.081 0 0 0 1.034,0.661 12.561,12.561 0 0 0 1.246,0.641 16.65,16.65 0 0 0 2.322,0.8 2.75,2.75 0 0 0 -0.117,-0.758 l -0.452,-1.468 1.274,0.758 a 7.936,7.936 0 0 0 2.632,1.062 1.56,1.56 0 0 0 0.965,-0.09 0.738,0.738 0 0 0 0.365,-0.63 4.951,4.951 0 0 0 -0.1,-1.509 c -0.068,-0.379 -0.082,-0.6 -0.013,-0.627 0.069,-0.027 0.207,0.138 0.406,0.489 a 3.748,3.748 0 0 1 0.472,1.704 z"
             id="path5"
             style="fill:#ff9999;fill-opacity:1" /><path
             d="m 75.242,72.3 h 0.013 l 0.214,-0.069 a 3.149,3.149 0 0 0 0.393,-0.138 5.583,5.583 0 0 0 1.206,-0.7 9.313,9.313 0 0 0 1.074,-0.93 37.431,37.431 0 0 0 2.894,-3.548 c 0.682,-0.882 1.137,-1.337 1.275,-1.248 0.138,0.089 -0.055,0.683 -0.5,1.709 a 19,19 0 0 1 -2.446,4.183 10.833,10.833 0 0 1 -1.164,1.226 6.963,6.963 0 0 1 -1.647,1.1 3.449,3.449 0 0 1 -0.427,0.186 l -0.214,0.083 -0.048,0.021 -0.09,0.027 -0.034,0.007 -0.124,0.035 a 7.6,7.6 0 0 1 -2.122,0.275 l -0.421,0.014 c -0.117,0.007 -0.193,0.035 -0.3,0.041 a 1.823,1.823 0 0 0 -0.5,0.262 l -0.124,0.083 a 1.158,1.158 0 0 0 -0.179,0.158 l -0.379,0.345 c -0.214,0.2 -0.448,0.461 -0.675,0.7 -0.227,0.239 -0.462,0.461 -0.7,0.744 -0.242,0.262 -0.476,0.53 -0.724,0.806 -0.275,0.289 -0.565,0.579 -0.847,0.875 a 7.385,7.385 0 0 1 -0.875,0.772 l -0.434,0.358 -0.221,0.172 -0.055,0.049 -0.069,0.048 -0.021,0.007 -0.027,0.02 -0.131,0.09 a 17.483,17.483 0 0 1 -4.217,2.081 c -0.7,0.268 -1.426,0.434 -2.122,0.633 -0.709,0.131 -1.391,0.311 -2.08,0.38 a 16.172,16.172 0 0 1 -7.3,-0.51 10.07,10.07 0 0 1 -2.391,-1.144 1.616,1.616 0 0 0 0.193,0.344 4.514,4.514 0 0 0 2.019,1.406 20.4,20.4 0 0 0 4.727,1.171 c 1.509,0.221 2.887,0.338 4.044,0.42 2.322,0.173 3.762,0.193 3.775,0.345 0.013,0.152 -1.433,0.441 -3.8,0.482 a 35.63,35.63 0 0 1 -4.161,-0.186 18.691,18.691 0 0 1 -5.044,-1.157 5.516,5.516 0 0 1 -2.5,-1.84 2.909,2.909 0 0 1 -0.517,-1.529 3.209,3.209 0 0 1 0.014,-0.441 c -0.048,-0.056 -0.1,-0.1 -0.145,-0.159 a 9.616,9.616 0 0 1 -2.156,0.1 6.565,6.565 0 0 1 -2.4,-0.716 7.175,7.175 0 0 1 -1.309,-0.9 c -0.275,-0.234 -0.407,-0.386 -0.379,-0.434 0.028,-0.048 0.227,0.007 0.558,0.152 0.331,0.145 0.8,0.365 1.385,0.6 a 6.827,6.827 0 0 0 2.184,0.414 8.52,8.52 0 0 0 1.282,-0.1 c -2.715,-1.371 -4.2,-3.4 -6.58,-5.712 -2.446,-2.37 -4.231,-5.319 -2.136,-8.606 4.761,-7.447 13.491,-10.7 21.779,-7.255 3.852,1.606 7.331,3.942 9.074,7.869 1.73,3.879 -0.089,5.284 -2.039,8.309 -2.026,3.321 -3.762,5.767 -7.8,6.566 a 22.132,22.132 0 0 1 -8.3,0.118 c 0.338,0.11 0.689,0.206 1.061,0.289 a 16.461,16.461 0 0 0 6.525,-0.021 c 0.62,-0.082 1.233,-0.275 1.867,-0.413 0.627,-0.207 1.275,-0.365 1.9,-0.627 a 16.626,16.626 0 0 0 3.679,-1.854 l 0.11,-0.076 0.021,-0.013 0.014,-0.007 0.02,-0.021 0.221,-0.172 0.441,-0.351 0.434,-0.352 a 3.388,3.388 0 0 0 0.358,-0.344 c 0.235,-0.235 0.462,-0.469 0.689,-0.7 0.248,-0.269 0.489,-0.531 0.738,-0.793 0.227,-0.261 0.516,-0.53 0.771,-0.785 0.276,-0.262 0.5,-0.517 0.806,-0.772 l 0.386,-0.337 c 0.076,-0.062 0.117,-0.1 0.207,-0.173 l 0.3,-0.192 a 3.408,3.408 0 0 1 0.613,-0.352 4.965,4.965 0 0 1 0.689,-0.22 5.885,5.885 0 0 1 0.679,-0.06 c 0.18,0.007 0.359,0.007 0.545,0.014 a 6.785,6.785 0 0 0 0.82,0 4.827,4.827 0 0 0 0.758,-0.11 l 0.089,-0.014 z M 66.9,70.241 c 1.523,-1.647 -0.841,-5.368 -2.047,-6.539 a 17.811,17.811 0 0 0 -8.6,-4.658 c -3.673,-0.8 -7.786,-0.854 -10.914,1.551 -2.163,1.653 -5.781,3.989 -6.318,6.89 -0.489,2.6 1.461,3.906 3.025,5.47 0.9,0.9 1.584,2.074 2.508,2.929 a 12.258,12.258 0 0 0 6.476,2.873 17.86,17.86 0 0 0 7.917,-0.269 c 3.093,-0.944 4.223,-2.763 5.856,-5.436 A 20.442,20.442 0 0 1 66.9,70.241 Z"
             id="path6"
             style="fill:#ff9999;fill-opacity:1" /><path
             d="m 81.491,32.786 c 0.186,3.5 -3.975,4.383 -5.395,1.261 a 0.779,0.779 0 0 1 -0.144,0.875 c -0.393,0.421 -1.186,0.372 -1.255,-0.971 -0.089,-1.64 2.143,-3.032 3.452,-3.555 1.84,-0.731 3.239,0.523 3.342,2.39 z m -2.549,1.082 a 1.244,1.244 0 0 0 0.372,-1.564 c -0.234,-0.393 -1.061,0.269 -1.213,0.455 a 2.029,2.029 0 0 0 0.841,1.109 z"
             id="path7"
             style="fill:#ff9999;fill-opacity:1" /><path
             d="m 77.716,58.782 c 0.165,-0.013 0.357,0.841 0.351,2.212 a 15.01,15.01 0 0 1 -0.221,2.426 7.165,7.165 0 0 1 -1.075,2.928 2.2,2.2 0 0 1 -1.364,0.937 1.9,1.9 0 0 1 -0.792,-0.028 4.895,4.895 0 0 1 -0.352,1.364 1.768,1.768 0 0 1 -0.723,0.834 1.463,1.463 0 0 1 -0.923,0.166 2.488,2.488 0 0 1 -1.062,-0.421 c -0.2,-0.151 -0.3,-0.255 -0.268,-0.317 0.041,-0.144 0.606,0.09 1.35,0.055 0.379,-0.027 0.607,-0.206 0.765,-0.668 a 7.446,7.446 0 0 0 0.207,-1.826 l 0.021,-0.847 0.8,0.4 A 0.945,0.945 0 0 0 75.835,65.66 7.535,7.535 0 0 0 76.8,63.2 c 0.207,-0.834 0.337,-1.619 0.448,-2.274 0.212,-1.31 0.309,-2.126 0.468,-2.144 z"
             id="path8"
             style="fill:#ff9999;fill-opacity:1" /><path
             d="m 71.859,23.988 c 0.034,0.165 -0.662,0.393 -1.461,1.247 a 13.756,13.756 0 0 0 -2.487,3.92 l -0.5,1.144 -0.586,-1.233 a 1.874,1.874 0 0 0 -0.165,-0.3 13.81,13.81 0 0 0 -2.109,3.686 c -0.523,1.2 -0.923,1.915 -1.075,1.867 -0.152,-0.048 -0.006,-0.854 0.317,-2.129 a 14.936,14.936 0 0 1 0.779,-2.239 8.4,8.4 0 0 1 1.723,-2.488 l 0.434,-0.42 0.448,0.524 c 0.055,0.062 0.1,0.117 0.151,0.186 a 9.853,9.853 0 0 1 2.563,-3.107 c 1.058,-0.81 1.968,-0.796 1.968,-0.658 z"
             id="path9"
             style="fill:#ff9999;fill-opacity:1" /><path
             d="m 70.66,47.834 c 0.4,0.269 0.661,0.414 0.627,0.5 -0.035,0.063 -0.31,0.076 -0.806,-0.089 A 5.393,5.393 0 0 1 68.586,47.1 16.889,16.889 0 0 1 66.464,44.716 C 66.099,44.255 65.727,43.779 65.313,43.324 A 4.518,4.518 0 0 0 65.003,42.98 L 64.838,42.814 64.803,42.78 64.8,42.77 64.7,42.694 64.507,42.536 a 1.285,1.285 0 0 0 -0.158,-0.083 3.62,3.62 0 0 0 -0.373,-0.193 2.883,2.883 0 0 1 -1.019,-0.654 2.806,2.806 0 0 1 -0.613,-1.02 l -0.055,-0.131 -0.028,-0.062 -0.007,-0.034 -0.021,-0.076 -0.055,-0.227 a 2.388,2.388 0 0 1 -0.089,-0.483 5.249,5.249 0 0 1 -0.042,-0.558 c 0.014,-0.179 0.028,-0.358 0.042,-0.531 a 2.63,2.63 0 0 1 1.061,-1.7 3.46,3.46 0 0 1 1.543,-0.586 4.757,4.757 0 0 1 2.219,0.228 c 0.489,0.172 0.723,0.358 0.7,0.42 -0.028,0.089 -0.31,0.055 -0.793,0.021 A 6.221,6.221 0 0 0 64.851,37 a 2.033,2.033 0 0 0 -1.7,1.647 c -0.007,0.117 -0.007,0.234 -0.014,0.358 l 0.041,0.351 a 2.057,2.057 0 0 0 0.1,0.435 l 0.055,0.213 0.007,0.014 0.02,0.048 0.042,0.09 a 1.572,1.572 0 0 0 1.054,1.04 4.893,4.893 0 0 1 0.524,0.269 c 0.089,0.062 0.2,0.124 0.275,0.179 l 0.186,0.159 0.1,0.082 0.02,0.021 0.055,0.041 0.008,0.014 0.048,0.048 0.172,0.186 a 4.392,4.392 0 0 1 0.338,0.379 c 0.434,0.51 0.806,1.02 1.143,1.5 a 26.905,26.905 0 0 0 1.84,2.439 8.041,8.041 0 0 0 1.495,1.321 z"
             id="path10"
             style="fill:#ff9999;fill-opacity:1" /><path
             d="m 61.448,55.82 c 2.033,1.027 3.142,1.922 3.059,2.039 -0.089,0.152 -1.33,-0.475 -3.4,-1.288 -1.026,-0.421 -2.28,-0.841 -3.679,-1.261 a 34.7,34.7 0 0 0 -4.63,-0.985 24.148,24.148 0 0 0 -4.685,-0.131 17.654,17.654 0 0 0 -2.005,0.331 c -0.31,0.075 -0.613,0.151 -0.9,0.22 -0.282,0.1 -0.544,0.2 -0.8,0.289 -2,0.752 -3.1,1.744 -3.218,1.564 -0.048,-0.062 0.172,-0.337 0.62,-0.785 0.117,-0.11 0.241,-0.234 0.379,-0.365 0.138,-0.131 0.338,-0.242 0.531,-0.372 a 7.817,7.817 0 0 1 1.364,-0.8 c 0.262,-0.118 0.538,-0.249 0.827,-0.38 0.3,-0.1 0.62,-0.2 0.944,-0.3 a 16.3,16.3 0 0 1 2.145,-0.47 21.281,21.281 0 0 1 4.953,0.041 29.257,29.257 0 0 1 4.8,1.116 28.088,28.088 0 0 1 3.695,1.537 z"
             id="path11"
             style="fill:#ff9999;fill-opacity:1" /><path
             d="m 59.87,66.472 c 1.488,-0.138 2.343,0.413 2.26,0.544 -0.048,0.11 -0.448,0.048 -1.1,0.1 a 3,3 0 0 1 0.723,1.336 2.072,2.072 0 0 1 0.035,0.93 1.4,1.4 0 0 1 -0.689,0.944 1.8,1.8 0 0 1 -1.055,0.179 3.456,3.456 0 0 1 -0.9,-0.206 5.4,5.4 0 0 1 -1.516,-0.786 1.567,1.567 0 0 1 -0.6,-0.916 1.3,1.3 0 0 1 0.33,-1.095 3.093,3.093 0 0 1 1.316,-0.786 5.2,5.2 0 0 1 0.944,-0.207 l 0.09,-0.02 c 0.007,0 0.007,0.007 0.013,0.007 a 1.056,1.056 0 0 1 0.149,-0.024 z m 0.834,2.659 a 1.129,1.129 0 0 0 0,-0.454 c -0.324,-1.93 -1.936,-1.3 -2.267,-0.407 -0.151,0.42 -0.027,0.9 0.648,1.206 a 1.675,1.675 0 0 0 1.474,-0.159 c 0.069,-0.034 0.103,-0.068 0.141,-0.186 z"
             id="path12"
             style="fill:#ff9999;fill-opacity:1" /><path
             d="m 57.658,30.148 c 0.393,1.419 -0.034,2.26 -0.151,2.218 -0.083,-0.014 -0.138,-0.22 -0.186,-0.558 -0.049,-0.186 -0.1,-0.413 -0.166,-0.661 -0.006,0.007 -0.013,0.02 -0.02,0.027 -0.159,0.214 -0.31,0.462 -0.475,0.7 -0.186,0.255 -0.373,0.517 -0.566,0.792 -0.22,0.269 -0.482,0.538 -0.744,0.813 l -0.675,0.738 -0.255,-1.041 a 6.551,6.551 0 0 0 -0.434,-1.268 3.923,3.923 0 0 0 -0.2,-0.378 7.5,7.5 0 0 1 -0.93,2.5 c -0.558,0.779 -0.985,1.158 -1.1,1.089 -0.115,-0.069 0.118,-0.606 0.49,-1.454 a 10.336,10.336 0 0 0 0.558,-3.479 l -0.014,-1.109 0.916,0.661 a 4.222,4.222 0 0 1 1.323,1.674 5.321,5.321 0 0 1 0.221,0.551 21.008,21.008 0 0 1 1.729,-1.956 l 0.517,-0.434 z"
             id="path13"
             style="fill:#ff9999;fill-opacity:1" /><path
             d="m 53.917,50.294 c 1.233,0.145 2.088,0.744 1.977,1.02 -0.117,0.324 -1.033,0.261 -2.1,0.138 -1.027,-0.1 -2.033,-0.262 -2.033,-0.593 -0.001,-0.303 0.875,-0.675 2.156,-0.565 z"
             id="path14"
             style="fill:#ff9999;fill-opacity:1" /><path
             d="m 50,27.536 a 15.97,15.97 0 0 1 0.5,4.058 c -0.049,1.055 -0.186,1.7 -0.345,1.7 -0.159,0 -0.317,-0.634 -0.475,-1.632 -0.193,-0.992 -0.427,-2.35 -0.813,-3.838 -0.386,-1.488 -0.779,-2.839 -1,-3.852 -0.221,-1.013 -0.276,-1.653 -0.124,-1.7 0.152,-0.047 0.489,0.5 0.909,1.447 A 25.444,25.444 0 0 1 50,27.536 Z"
             id="path15"
             style="fill:#ff9999;fill-opacity:1" /><path
             d="m 47.592,68.374 a 3.075,3.075 0 0 1 0.276,1.557 2.6,2.6 0 0 1 -0.207,0.882 1.4,1.4 0 0 1 -0.868,0.8 1.919,1.919 0 0 1 -1.034,-0.055 1.87,1.87 0 0 1 -0.875,-0.572 1.7,1.7 0 0 1 -0.379,-0.917 2.259,2.259 0 0 1 0.076,-0.847 3.1,3.1 0 0 1 0.71,-1.261 l 0.207,-0.186 c -0.1,-0.048 -0.193,-0.1 -0.29,-0.145 a 7.351,7.351 0 0 0 -1.364,-0.365 c -0.352,-0.041 -0.572,-0.076 -0.579,-0.158 -0.007,-0.082 0.172,-0.193 0.531,-0.29 a 3.871,3.871 0 0 1 1.66,0.035 c 0.172,0.041 0.352,0.1 0.538,0.165 a 5.875,5.875 0 0 1 0.558,0.276 1.147,1.147 0 0 1 0.151,0.1 1.17,1.17 0 0 1 0.5,0.269 1.565,1.565 0 0 1 0.3,0.441 1.446,1.446 0 0 1 0.089,0.271 z m -0.861,1.46 a 2.421,2.421 0 0 0 -0.1,-1.013 1.777,1.777 0 0 0 -0.352,-0.489 2.053,2.053 0 0 0 -0.654,1.144 0.874,0.874 0 0 0 0.131,0.771 0.8,0.8 0 0 0 0.3,0.187 1.18,1.18 0 0 0 0.4,0.068 c 0.035,-0.013 0.09,-0.041 0.159,-0.179 a 1.907,1.907 0 0 0 0.116,-0.489 z"
             id="path16"
             style="fill:#ff9999;fill-opacity:1" /><path
             d="m 45.567,36.073 a 3.792,3.792 0 0 1 -0.014,0.565 l -0.007,0.131 -0.007,0.069 -0.007,0.069 -0.014,0.082 a 2.981,2.981 0 0 1 -0.1,0.317 c -0.255,0.71 -0.531,1.344 -0.827,1.978 a 5.1,5.1 0 0 1 -0.234,0.468 c -0.042,0.083 -0.09,0.166 -0.145,0.255 a 1.345,1.345 0 0 1 -0.138,0.179 1.007,1.007 0 0 1 -0.1,0.083 0.557,0.557 0 0 1 -0.324,0.124 0.794,0.794 0 0 1 -0.276,-0.048 v -0.007 c -0.1,-0.083 -0.165,-0.131 -0.193,-0.159 a 0.084,0.084 0 0 1 -0.02,-0.013 L 43.147,40.159 43.14,40.152 43.133,40.138 a 0.953,0.953 0 0 0 -0.42,-0.365 c -0.083,-0.034 -0.221,0.007 -0.407,0.138 a 2.955,2.955 0 0 0 -0.5,0.517 12.847,12.847 0 0 0 -0.813,1.226 20.565,20.565 0 0 1 -1.193,1.888 c -0.331,0.434 -0.621,0.6 -0.669,0.537 -0.048,-0.063 0.09,-0.3 0.283,-0.772 0.193,-0.472 0.468,-1.171 0.861,-2.039 a 10.532,10.532 0 0 1 0.758,-1.4 3.812,3.812 0 0 1 0.634,-0.751 1.508,1.508 0 0 1 1.261,-0.393 1.531,1.531 0 0 1 0.558,0.241 1.735,1.735 0 0 0 0.075,-0.166 c 0.262,-0.592 0.531,-1.24 0.758,-1.881 a 7.665,7.665 0 0 0 -0.475,-3.6 23.5,23.5 0 0 0 -0.792,-3.114 1.844,1.844 0 0 0 -1.3,-1.268 c -0.117,-0.021 -0.22,-0.035 -0.317,-0.048 -0.097,-0.013 -0.172,-0.007 -0.241,-0.014 -0.138,-0.007 -0.22,-0.035 -0.227,-0.069 -0.007,-0.034 0.048,-0.09 0.179,-0.159 0.069,-0.027 0.152,-0.068 0.255,-0.1 0.11,-0.02 0.234,-0.041 0.386,-0.062 a 1.8,1.8 0 0 1 1.054,0.3 2.93,2.93 0 0 1 0.944,1.067 16.445,16.445 0 0 1 1.089,3.184 c 0.172,0.572 0.392,1.2 0.544,1.9 a 4.649,4.649 0 0 1 0.1,0.544 3.192,3.192 0 0 1 0.049,0.594 z"
             id="path17"
             style="fill:#ff9999;fill-opacity:1" /><path
             d="m 43.169,40.166 a 0.084,0.084 0 0 0 0.02,0.013 0.133,0.133 0 0 1 -0.034,-0.02 z"
             id="path18"
             style="fill:#ff9999;fill-opacity:1" /><path
             d="m 43.148,40.152 0.007,0.007 z"
             id="path19"
             style="fill:#ff9999;fill-opacity:1" /><path
             d="m 37.622,18.324 a 9.26,9.26 0 0 1 -0.475,2.791 17.711,17.711 0 0 1 -1.3,3.128 c -0.552,1.082 -1.227,2.163 -1.73,3.335 a 7.6,7.6 0 0 0 -0.606,3.858 20.456,20.456 0 0 1 0.076,2.288 6.113,6.113 0 0 1 -0.641,2.418 c -0.034,0.062 -0.062,0.124 -0.09,0.186 l -0.213,0.461 -0.5,-0.2 a 7.394,7.394 0 0 1 -1.923,-1.234 7.651,7.651 0 0 1 -0.854,3.391 l -0.234,0.365 -0.4,-0.138 a 7.291,7.291 0 0 1 -2.8,-1.826 13.186,13.186 0 0 1 -1.826,-2.322 27.95,27.95 0 0 1 -2.171,-4.238 19.142,19.142 0 0 1 -1.419,-3.961 c 0.124,-0.062 0.855,1.323 2.033,3.672 a 33.957,33.957 0 0 0 2.328,4.017 13.2,13.2 0 0 0 1.771,2.095 6.743,6.743 0 0 0 1.991,1.35 5,5 0 0 0 0.317,-1.357 17.37,17.37 0 0 1 0.3,-2.233 l 0.206,-0.813 0.689,0.5 c 0.683,0.489 1.282,1.033 1.909,1.4 a 5.288,5.288 0 0 0 0.358,-1.6 19.069,19.069 0 0 0 -0.055,-2.15 c -0.014,-0.379 -0.034,-0.744 -0.021,-1.123 l -0.055,-0.282 -0.062,-0.138 v -0.021 l 0.069,-0.069 0.041,-0.034 0.028,-0.069 0.089,-0.517 a 10.53,10.53 0 0 1 0.276,-1.1 c 0.124,-0.337 0.248,-0.682 0.393,-1 0.586,-1.275 1.3,-2.336 1.867,-3.363 A 19.6,19.6 0 0 0 36.352,20.856 9.444,9.444 0 0 0 36.959,18.314 2.2,2.2 0 0 0 36.5,16.6 2.108,2.108 0 0 0 35.439,16.083 c -0.282,-0.055 -0.441,-0.089 -0.441,-0.131 0,-0.042 0.152,-0.082 0.469,-0.1 a 2,2 0 0 1 1.33,0.406 2.588,2.588 0 0 1 0.825,2.066 z"
             id="path20"
             style="fill:#ff9999;fill-opacity:1" /><path
             d="m 36.871,73.217 c 0.255,0.22 0.455,0.317 0.42,0.379 -0.02,0.035 -0.213,0.069 -0.571,-0.076 A 3.026,3.026 0 0 1 35.473,72.439 12.7,12.7 0 0 1 33.846,68.4 l -0.027,0.027 c -0.3,0.29 -0.62,0.524 -0.834,0.738 l -0.517,0.523 -0.365,-0.634 a 7.433,7.433 0 0 1 -0.964,-3.265 13.571,13.571 0 0 1 0.84,-5.12 30.133,30.133 0 0 1 1.64,-3.8 c 1.075,-2.081 1.812,-3.314 1.95,-3.252 0.158,0.062 -0.324,1.44 -1.206,3.59 -0.42,1.074 -0.93,2.349 -1.364,3.8 a 13.86,13.86 0 0 0 -0.7,4.713 6.82,6.82 0 0 0 0.482,2.157 c 0.1,-0.083 0.2,-0.159 0.283,-0.242 a 2.071,2.071 0 0 0 0.524,-0.675 l 0.7,-1.447 0.3,1.537 a 19.812,19.812 0 0 0 1.429,5.05 3.418,3.418 0 0 0 0.854,1.117 z"
             id="path21"
             style="fill:#ff9999;fill-opacity:1" /></g></g><g
         id="g5"
         transform="translate(2.4916234e-7,1.5562596)"><g
           id="g3"
           transform="translate(14.148674,7.0415779)"><rect
             style="fill:#000000;fill-opacity:0;stroke:#26a605;stroke-width:1.5195;stroke-dasharray:none;stroke-opacity:1"
             id="rect2"
             width="177.23038"
             height="179.07492"
             x="-32.562511"
             y="-5.9139867" /><rect
             style="fill:#26a605;fill-opacity:1;stroke:#26a605;stroke-width:3.73515;stroke-dasharray:none;stroke-opacity:1"
             id="rect3"
             width="113.46497"
             height="14.812018"
             x="-31.455673"
             y="-22.003099" /></g><text
           xml:space="preserve"
           transform="matrix(1.8689678,0,0,2.0145548,-84.445092,-54.742849)"
           id="text4"
           style="font-size:8.81455px;text-align:start;writing-mode:lr-tb;direction:ltr;white-space:pre;shape-inside:url(#rect5);fill:#ffffff;fill-opacity:1;stroke:#26a605;stroke-width:0.413182;stroke-dasharray:none;stroke-opacity:1"><tspan
             x="36.058594"
             y="26.496077"
             id="tspan3"><tspan
               style="stroke:#ffffff"
               id="tspan1">ХОХОЛ : 0.87</tspan></tspan></text></g></g></g></svg>
